<?xml version="1.0" encoding="utf-8"?>
<!-- Generator: Adobe Illustrator 19.2.1, SVG Export Plug-In . SVG Version: 6.00 Build 0)  -->
<svg version="1.1" xmlns="http://www.w3.org/2000/svg" xmlns:xlink="http://www.w3.org/1999/xlink" x="0px" y="0px"
	 viewBox="0 0 141.4 86" style="enable-background:new 0 0 141.4 86;" xml:space="preserve">
<style type="text/css">
	
		.Locator_x0020_map_x0020_main_x0020_country{fill-rule:evenodd;clip-rule:evenodd;fill:#FFFFFF;stroke:#93887E;stroke-width:0.25;stroke-miterlimit:3.8637;}
	.Locator_x0020_map_x0020_other_x0020_country{fill:#E6D3C9;}
	.Locator_x0020_map_x0020_sea{fill-rule:evenodd;clip-rule:evenodd;fill:#83C3E2;stroke:#FFFFFF;stroke-miterlimit:3.8637;}
	.st0{stroke:#D1D3D4;stroke-width:2;stroke-miterlimit:10;}
	.st1{fill:#FFFFFF;}
	.st2{fill:#E6E7E8;}
	.st3{fill:#727376;}
</style>
<symbol  id="Deleted_Symbol_2" viewBox="-7.9 -5.2 15.8 10.3">
	<path d="M7.8,4.5l-0.5,0l0,0.3L6.7,4.9c0,0,0-0.1,0-0.2c0,0-0.1-0.2-0.1-0.3L-1,4.7l0,0.1l-3.7,0.1l0,0.1l-0.1,0.2l-0.5,0l-0.1-0.1
		l0-0.2l-0.1,0c0,0-0.3-0.2-0.6-0.4l0,0.1c0,0,0,0.1-0.1,0.1c-0.1,0-0.3-0.1-0.4-0.1c-0.1,0-0.3,0.1-0.5,0.1
		c-0.2-0.1-0.2-0.3-0.2-0.4c0-0.1,0.2-0.5,0.5-0.7c-0.1-0.1-0.1-0.2-0.1-0.3c0-0.1-0.2-0.8-1-0.8l-0.1-0.2l0-0.2c0,0,0.8,0,1.1-0.5
		c0.3-0.5,0.3-0.8,0.1-1.2C-6.8-0.1-7.9-3-7.9-3.3c0-0.3,0-1.1,0.2-1.2L-7-4.6C-7-4.6-7-4.8-7-4.8c0.1,0,1.9-0.3,2.3-0.3
		C-4.2-5.2-4.1-5.1-4-5c0,0.1,0,0.2-0.1,0.2c-0.1,0.1-0.1,0.3-0.1,0.3l-0.1,0C-4.1-4.4-4-4.2-3.9-3.9c0.1,0.5,0.7,2.3,0.8,2.8
		C-3-0.6-2.6-0.4-2.2-0.5c0.3-0.1,1.4-0.1,1.7-0.1c0.2,0,1.4,0.2,1.6,0.4l0,0.1c0,0-0.1,0.2,0,0.7c0.1,0.5,0.7,1.3,1.3,1.2l3.7,0
		L6,2l1.2,0c0,0,0.1,0.3,0.1,0.4c0,0.1-0.1,0.3-0.1,0.3l0,0.8l0.5,0c0,0,0.1,0,0.1,0.5C7.9,4.5,7.8,4.5,7.8,4.5z M-1-0.4
		C-2-0.3-2.7,0-2.7,0.7c0,0.4,0.3,0.7,0.7,0.9l0.3,0c0,0,0-0.1,0.1-0.2c0.2-0.1,0.2-0.1,0.2-0.1S-1.4,0-0.3,0l0.2,0.2
		c0,0-1.4,0.1-0.8,1.4l0.8,0c0.5-0.2,0.8-0.5,0.8-0.9C0.6,0.1-0.1-0.4-1-0.4z"/>
</symbol>
<g id="Background">
</g>
<g id="Picture">
	<g id="AFP_3_">
		<g id="AFP">
		</g>
	</g>
	<line class="st0" x1="-252.9" y1="-46.9" x2="-252.9" y2="434.7"/>
	<rect x="0" class="st1" width="141.4" height="86"/>
	<g>
		<circle class="st2" cx="57.6" cy="48.1" r="25.7"/>
		<path class="st3" d="M24.1,55.1c0.5,0.6,0,1.2-1,1.1c-1-0.1-1.4-1.4-1.4-1.4s0.1,1-0.8,1.1s-1.5-5.4-1.8-9.6
			c-0.3-4.3-0.5-6.4,0.3-6.5s0.9,0.5,0.9,0.5s21.5,0.1,22,0c0.5-0.2,0-1.2,0.3-1.4c0.4-0.2,1.3-0.1,1.6-0.2c0.3-0.1,0.5-1.2,0.8-1.9
			c0.4-0.7,0.7-0.5,0.9-0.6c0.2-0.1,0-1.3,0.8-2.1c0.8-0.8,2.1-0.4,2.6-0.2c0.6,0.1,14.5,1,15.8,1.2c1.2,0.2,1.7,0.7,1.7,1.1
			s0,2,0,2.9s0,1.2,0.3,1.2c0.3,0,0.2-0.2,0.2-0.5c0-0.3,0.2-0.5,0.5-0.4s0.3,0.1,0.9,0.2c0.6,0,0.4,0.5,0.7,0.4s0.3-0.5,0.8-0.5
			s18.3,0,19,0c0.6,0,0.5,0.2,0.6,0.3c0,0.2,0.2,0.1,0.5,0.1s0.2-0.1,0.3-0.3s1.7-2.4,2.9-4c1.1-1.6,1.4-1.7,2-1.6
			c0.6,0,0.8,0.4,0.8,0.8s0,5.8,0,6.2s-0.1,0.5,0.2,0.5c0.3,0,4.3,0,4.5,0c0.3,0,0.4,0.1,0.6,0.2c0.2,0.1,1.8,0,2.3,0
			s0.3-0.2,0.5-0.2c0.2,0,12.4,0,12.5,0s0.1-0.2,0.4-0.2c0.3,0,0.3,0.1,0.4,0.2c0.1,0.1,0.3,0,0.3-0.1c0-0.1,0.2-0.2,0.4-0.2
			c0.3,0.1,0.1,0.3,0.2,0.3c0.1,0,0.1-0.3,0.2-0.3c0.1,0,3.1-0.2,3.3,0c0.2,0.2,0.4,0.2,0.4,1.3c0,1.1-0.2,1.6-0.3,1.6s-2.5,0-2.9,0
			c-0.4,0-0.6,0-0.6-0.2c0-0.2-0.4-0.3-0.4,0s-0.5,0.2-0.5,0c0-0.2-0.4-0.1-0.3,0.1c0,0.2-0.5,0.3-0.5,0.1c0-0.2,0.1-0.3-0.7-0.3
			s-11.7,0.2-11.9,0.1c-0.1-0.1-2.6-0.4-2.6,0s-1.3,0.3-2.9,0.2c-1.5,0-1.2,0.2-1.3,0.8c-0.1,0.7-0.1,0.5-0.7,0.6s-0.3,0.5-0.7,0.5
			c-0.5,0-0.8,0-0.8-0.8s-0.1-1-0.2-1.1c-0.1-0.1-2.1-0.1-2.8,0c-0.7,0.1-0.3,0.9-0.3,2.1c0,1.1,0.2,2.3-0.3,2.3
			c-0.5,0-0.5-0.2-0.5-1.7c0-1.4-0.1-2.2-0.5-1.8c-0.3,0.4-0.8,1.4-1.4,1.4c-0.5,0.1-19.5,0.3-19.5-0.1c0-0.3-0.3-0.8-0.4-0.5
			s-0.2,0.8-0.8,0.7c-0.6,0-1.1,0.2-1.2-0.2c-0.1-0.4-0.1-0.9-0.1-1.3c0-0.3-0.5-0.4-0.5,0.1c0,0.5,0.2,0.9-0.3,1.3
			c-0.5,0.4-1.2,0.7-1.3,1.5c0,0.9,0,2.3,0.3,2.9c0.3,0.5,0.1,0.6-0.3,1.3c-0.3,0.7,1.4,9.9,1.7,11.1s1,1.9,0.3,2.4
			c-0.7,0.4-5.6,2.1-6.7,2.2c-1.1,0-1.3-1-2.5-5.6s-1.3-8.3-1.5-8.7c-0.1-0.5-2.9-0.2-5-0.2s-2.6-0.2-3,0.3
			c-0.4,0.5-1.4,1.9-0.9,2.1s0.7,0.3,0.6,0.6c-0.1,0.3-1,0-1.3,0.1c-0.3,0.2-1.5,2.2-2,3s0.1,1.2,0,1.9c-0.1,0.6-0.6,0.8-3.3,0
			c-2.7-0.8-3.9-0.6-3.6-1.4s3.3-4.8,4.5-6.6c1.2-1.7,1.8-2.9,1.8-3.8s-0.3-1.5-0.9-1.9c-0.6-0.4-2.3-0.2-2.3-0.2v-2.5h-0.9v1.2
			c0,0-2.7,0.1-3.2,0.2s-1.2,2.7-1.3,2.8s-1.8,0-2,0c-0.2,0-0.2,0.6-0.2,0.8c0,0.2-0.2,0.3-0.7,0.3c-0.5,0-0.6-0.1-0.6-0.6
			s-0.2-0.5-0.5-0.5c-0.4,0-0.4,0.3-0.7,0.6c-0.3,0.3-2,1.7-2.7,2.3c-0.7,0.6-0.8,0.7-1,0.4c-0.2-0.3-0.2-0.8-0.1-1.5
			c0-0.6,0.1-0.6,0.4-1.1c0.2-0.5-1.3,0.3-2.4,0.9c-1.1,0.6-1.5,0.5-2,2.1C22.6,54.1,23.7,54.6,24.1,55.1z M23.1,55
			c-0.5-0.3-0.5,0.1-0.3,0.3c0.2,0.2,0.6,0.5,0.7,0.3S23.4,55.2,23.1,55z M25.6,46.5v-0.2c0-0.1-0.1-0.3-0.3-0.3h-4.1
			c-0.1,0-0.3,0.1-0.3,0.3v0.2c0,0.1,0.1,0.3,0.3,0.3h4.1C25.5,46.7,25.6,46.6,25.6,46.5z M51.3,49c0,0-1.4,0.5-1.4,1.8
			c0.1,1.4,0.9,1.7,1.5,1.7s3.3,0,3.8,0s1.1-0.6,1-2c-0.1-1.4-0.6-1.5-1.2-1.5c-0.6-0.1-2.1-0.1-2.5,0.1c-0.4,0.2-0.7,1.1-0.8,1.7
			c0,0.7,0.7,1.2,0.6,1.4s-0.9-0.3-1-1.4s0.3-1.9,0.3-1.9C51.7,48.9,51.6,48.9,51.3,49z M94.6,35.6h-0.2l-2.9,3.6v0.5h4.1v-1.9h-0.8
			l-0.2-0.3L94.6,35.6z M65.5,37.2v-0.6c0-0.5-0.4-0.9-0.9-0.9H52.4c-0.5,0-0.9,0.4-0.9,0.9v0.6c0,0.5,0.4,0.9,0.9,0.9h12.1
			C65.1,38.1,65.5,37.7,65.5,37.2z"/>
	</g>
</g>
<g id="Foreground">
</g>
<g id="Text">
</g>
<g id="Thailand_x5F_flag2_xA0_Image">
</g>
</svg>
