<?xml version="1.0" encoding="utf-8"?>
<!-- Generator: Adobe Illustrator 19.2.1, SVG Export Plug-In . SVG Version: 6.00 Build 0)  -->
<svg version="1.1" xmlns="http://www.w3.org/2000/svg" xmlns:xlink="http://www.w3.org/1999/xlink" x="0px" y="0px"
	 viewBox="0 0 141.4 87.1" style="enable-background:new 0 0 141.4 87.1;" xml:space="preserve">
<style type="text/css">
	.st0{fill-rule:evenodd;clip-rule:evenodd;stroke:#FFFFFF;stroke-width:0.5;}
	.Locator_x0020_map_x0020_sea{fill-rule:evenodd;clip-rule:evenodd;fill:#83C3E2;stroke:#FFFFFF;stroke-miterlimit:3.8637;}
	
		.Locator_x0020_map_x0020_main_x0020_country{fill-rule:evenodd;clip-rule:evenodd;fill:#FFFFFF;stroke:#93887E;stroke-width:0.25;stroke-miterlimit:3.8637;}
	.Locator_x0020_map_x0020_other_x0020_country{fill:#E6D3C9;}
	.st1{fill:#FFFFFF;}
	.st2{fill:#E6E7E8;}
	.st3{fill:#727376;}
</style>
<symbol  id="Deleted_Symbol" viewBox="-2.1 -2.1 4.2 4.2">
	<ellipse class="st0" cx="0" cy="0" rx="1.8" ry="1.8"/>
</symbol>
<symbol  id="Deleted_Symbol_2" viewBox="-7.9 -5.2 15.8 10.3">
	<path d="M7.8,4.5l-0.5,0l0,0.3L6.7,4.9c0,0,0-0.1,0-0.2c0,0-0.1-0.2-0.1-0.3L-1,4.7l0,0.1l-3.7,0.1l0,0.1l-0.1,0.2l-0.5,0l-0.1-0.1
		l0-0.2l-0.1,0c0,0-0.3-0.2-0.6-0.4l0,0.1c0,0,0,0.1-0.1,0.1c-0.1,0-0.3-0.1-0.4-0.1c-0.1,0-0.3,0.1-0.5,0.1
		c-0.2-0.1-0.2-0.3-0.2-0.4c0-0.1,0.2-0.5,0.5-0.7c-0.1-0.1-0.1-0.2-0.1-0.3c0-0.1-0.2-0.8-1-0.8l-0.1-0.2l0-0.2c0,0,0.8,0,1.1-0.5
		c0.3-0.5,0.3-0.8,0.1-1.2C-6.8-0.1-7.9-3-7.9-3.3c0-0.3,0-1.1,0.2-1.2L-7-4.6C-7-4.6-7-4.8-7-4.8c0.1,0,1.9-0.3,2.3-0.3
		C-4.2-5.2-4.1-5.1-4-5c0,0.1,0,0.2-0.1,0.2c-0.1,0.1-0.1,0.3-0.1,0.3l-0.1,0C-4.1-4.4-4-4.2-3.9-3.9c0.1,0.5,0.7,2.3,0.8,2.8
		C-3-0.6-2.6-0.4-2.2-0.5c0.3-0.1,1.4-0.1,1.7-0.1c0.2,0,1.4,0.2,1.6,0.4l0,0.1c0,0-0.1,0.2,0,0.7c0.1,0.5,0.7,1.3,1.3,1.2l3.7,0
		L6,2l1.2,0c0,0,0.1,0.3,0.1,0.4c0,0.1-0.1,0.3-0.1,0.3l0,0.8l0.5,0c0,0,0.1,0,0.1,0.5C7.9,4.5,7.8,4.5,7.8,4.5z M-1-0.4
		C-2-0.3-2.7,0-2.7,0.7c0,0.4,0.3,0.7,0.7,0.9l0.3,0c0,0,0-0.1,0.1-0.2c0.2-0.1,0.2-0.1,0.2-0.1S-1.4,0-0.3,0l0.2,0.2
		c0,0-1.4,0.1-0.8,1.4l0.8,0c0.5-0.2,0.8-0.5,0.8-0.9C0.6,0.1-0.1-0.4-1-0.4z"/>
</symbol>
<g id="Background">
</g>
<g id="Picture">
	<g id="AFP_3_">
		<g id="AFP">
		</g>
	</g>
	<g id="Nouveau_symbole_2">
	</g>
	<rect x="-1.1" y="1.1" class="st1" width="141.4" height="86"/>
	<circle class="st2" cx="69.9" cy="39.3" r="25.7"/>
	<path class="st3" d="M131.7,23.6v0.6h-0.5v-0.6h-0.6v0.6h-0.5v-0.6h-0.6v0.6h-1.8v-0.4h-11v0.4h-2.6v-0.4h-4.8v-6.5
		c0,0,0.1-0.9-0.5-0.9s-0.6,0-1.1,0c-0.4,0-0.8,0.7-0.8,0.7l-3.5,4.5l-0.3,0.4v-1.2l-20.4-0.4v0.6h-2.4v0.7h-0.5v-3.3
		c0,0-0.1-1.1-1.7-1.2c-1.5-0.2-17.5-1.4-17.5-1.4s-1.3-0.1-1.6,0.8c-0.3,0.9,0,1.7,0,1.7h-0.9L57.4,21h-1.7l-0.1,1.5l-0.3,0.3v0
		h-2.2v0.4H41.7l0-1H22l-1.2-0.4c0,0-1.2-0.1-1.5,0.5c-0.3,0.6-0.4,1.9,0.2,6.7s2.4,8.5,2.4,8.5l1.1-0.1l0-0.1c0,0,0,0,0,0.1
		c0.1,0.2,0.3,0.4,0.6,0.5c0.1,0,0.2,0,0.3,0c0.2,0,0.4,0,0.6-0.1l0.5-0.2c0.3-0.1,0.6-0.3,0.7-0.6c0.2-0.3,0.2-0.5,0.1-0.8
		c-0.1-0.2-0.3-0.4-0.6-0.5c-0.3-0.1-0.6,0-0.9,0.1l-0.1,0l0-0.2l1.9-3.6l3.4-1.4l-1,1.1V34l3.7-3.3h1.3v1.1h1v-1.1h2l0.8-0.4
		c0,0,0,0,0-0.7c0-1.4,1.2-1.6,1.2-1.6h1.9l1-0.4h7l0.7-1h3.7v0.4h1.5v1.8l0.8,0.3c0,0,1.3-0.1,2,0.8c0.7,0.9,0.7,0.9,0.6,1.9
		c0,1-0.9,1.7-0.9,1.7s-5.4,8.4-5.5,8.7s2.9,0.8,3.8,1.1s2.5,0.4,2.9,0.2c0.3-0.2,0.8-0.1,0.5-0.7c-0.2-0.5-0.5-0.6-0.1-1.4
		c0.3-0.8,1.7-2.9,1.7-2.9s1.2,0.1,1.2-0.5c0-0.6-0.6-0.7-0.4-1.3s0.8-1.3,0.8-1.3l1.7,0l0.8-0.3h4.5l0.5,0.4l1.5-0.1l7.6-1.3
		c0,0,0.4-0.4,0-0.9v-3.4c0,0,0.3-0.8,0.8-1c0.5-0.2,0.8-0.5,0.7-0.8c-0.1-0.2,0.2-0.3,0.4-0.3v1.3h2.4v0.6l20.4-0.4v-1.9l0.4,0.2
		c0,0,0.1,0.4,0.5,0.4c0.4,0,0.6-0.2,0.6-0.2s1.5,0.3,1.9,0.4c0.4,0.1,1.2,0.1,1.1-0.2c-0.1-0.3-2.1-0.7-2.5-0.7c-0.4,0-0.4,0-0.4,0
		l-0.1-0.2l0.2-0.7h0.3V26h2.6l-0.1,0.3l0.3,0.4v1.1h1v-0.4h1.2v-0.8l-0.8-0.4V26h4.8v-0.4h2.6V26h11v-0.4h1.8v0.6h0.6v-0.6h0.5v0.6
		h0.6v-0.6h0.5v0.6h3.8v-0.6v-1.4v-0.6H131.7z M24.7,36.1C24.8,36,25,36,25.1,36c0.1,0,0.2,0,0.2,0c0.2,0,0.3,0.1,0.4,0.3
		c0.1,0.1,0,0.3-0.1,0.4c-0.1,0.2-0.3,0.3-0.5,0.4l-0.5,0.2c-0.2,0.1-0.5,0.1-0.7,0.1c-0.2,0-0.3-0.1-0.4-0.3
		c-0.1-0.1,0-0.3,0.1-0.4c0.1-0.2,0.3-0.3,0.5-0.4L24.7,36.1z M26.6,28.6L23,28.5l-0.4-0.6h4V28.6z M67.6,34.5h-2.2
		c-1.2,0-2.2-0.7-2.2-1.7c0-0.7,0.6-1.3,1.4-1.5c-0.2,0.7-0.3,2,0.7,3c0.2,0.2,0.2,0.1,0.1-0.2c-0.1-0.3-0.9-1.7,0.7-2.9h1.5
		c1.2,0,2.2,0.7,2.2,1.7C69.7,33.7,68.8,34.5,67.6,34.5z M78.5,19.3c0,0.6-0.5,1.1-1.1,1.1h-12c-0.6,0-1.1-0.5-1.1-1.1v-0.1
		c0-0.6,0.5-1.1,1.1-1.1h12C78.1,18.1,78.5,18.6,78.5,19.3L78.5,19.3z M108.5,22c0,0.3-0.3,0.4-0.6,0.4c-0.4,0-2.7,0-3,0
		c-0.3,0-0.7-0.4-0.2-1l2-2.6c0,0,0-0.3,0.6-0.3c0.6,0,0.5,0.3,0.5,0.6s0,0.5,0,0.7c0,0.2,0.8,0.4,0.8,0.7
		C108.5,20.6,108.5,21.7,108.5,22z"/>
	<path class="st3" d="M90.8,53.4l0-0.6l0.3-0.1l-0.1-3l-0.4-0.1c0,0,0.2-0.6-0.2-0.8c-0.4-0.1-0.8-0.2-0.8-0.2L89,48.2
		c0,0-0.3,0-0.4,0.2c0,0.2-0.2,0.5-0.2,0.5l-12.7,0l0,0.4h-6.1L69.3,49l-13.4,0.1c0,0-0.2-0.5-0.2-0.8c0-0.2-0.6-0.2-0.7-0.2
		c-0.1,0-0.4,1-0.4,1h-1.4c0,0-0.4,0-0.4,0.6c0,0.6-0.1,3.3-0.1,3.3s0.2,0.1,0.1,0.2c-0.1,0.1-0.2,0.1-0.2,0.1l0.1,0.7
		c0,0-0.5,0.4-0.5,1c0,0.5,0.1,0.8,0.5,0.8c0.4,0,1.5,0,2.3,0.9c0.8,0.9,1,2,0.6,3.1c-0.4,1.1-0.6,2.3-1.1,3.1
		c-0.5,0.8-2.6,4.1-3.5,6.1c-0.9,2-1.2,3.3-1,3.5c0.1,0.2,2,1.3,2,1.3l9.8,1.2c0,0,1.1,0.2,1.2-0.3c0.1-0.5-0.4-0.6-0.2-1.6
		c0.2-1,0.6-1.7,1.2-1.9c0.6-0.2,0.6-0.2,0.4-0.8c-0.2-0.6-0.3-1.6,0.2-2.3c0.5-0.7,1.4-0.8,1.4-1.2c0-0.3-0.4-1-0.1-1.7
		c0.2-0.6,0.7-1.5,0.7-1.5l0-0.3c0,0,0.4-0.5,1.3-0.5c0.9,0,1.1,0.8,2.5,0.8c1.4,0.1,8.4-0.4,8.4-0.4s0.5-0.2,0.1-0.8
		c-0.3-0.6-0.5-3.5-0.4-4.2c0.2-0.7,0.9-1.4,1.6-1.4c0.7-0.1,0.8-0.1,0.8-0.1l0.3,0.2l6.7-0.2l0.2-0.4l0.3,0l0.1,0.3
		c0,0,1,0,1.4-0.2c0.5-0.2,0.6-0.5,0.6-1c0-0.5,0-0.8,0-0.8l0.2-0.3l0-0.9l-0.2-0.3L90.8,53.4z M76.7,61.9c-0.6,0.7-1.8,0.7-3.2,0.8
		c-1.4,0.1-3.5,0.3-4-0.1c-0.6-0.4-1.2-0.9-1.3-1.7c-0.2-1,0.4-1.2,0.5-0.7c0.1,0.6,0.3,1,0.6,1.4c0.6,0.8,1.1,1.3,1.3,0.9
		c0.3-0.1,0.5-0.1,0.4-0.7c-0.1-0.5-0.9-1.5-0.7-2.2s0.6-1.3,0.6-1.3s3.7-0.6,4.7-0.6c0.9,0,1.4,0.8,1.5,1.3
		C77,59.4,77.2,61.2,76.7,61.9z"/>
</g>
<g id="Map_template">
</g>
<g id="Text">
</g>
<g id="BullesCompareesPlus">
</g>
<g id="Layer_1">
</g>
<g id="_x3C_Layer_x3E_">
</g>
</svg>
