<?xml version="1.0" encoding="utf-8"?>
<!-- Generator: Adobe Illustrator 19.2.1, SVG Export Plug-In . SVG Version: 6.00 Build 0)  -->
<svg version="1.1" xmlns="http://www.w3.org/2000/svg" xmlns:xlink="http://www.w3.org/1999/xlink" x="0px" y="0px"
	 viewBox="0 0 141.4 86" style="enable-background:new 0 0 141.4 86;" xml:space="preserve">
<style type="text/css">
	.st0{fill-rule:evenodd;clip-rule:evenodd;stroke:#FFFFFF;stroke-width:0.5;}
	.Locator_x0020_map_x0020_sea{fill-rule:evenodd;clip-rule:evenodd;fill:#83C3E2;stroke:#FFFFFF;stroke-miterlimit:3.8637;}
	
		.Locator_x0020_map_x0020_main_x0020_country{fill-rule:evenodd;clip-rule:evenodd;fill:#FFFFFF;stroke:#93887E;stroke-width:0.25;stroke-miterlimit:3.8637;}
	.Locator_x0020_map_x0020_other_x0020_country{fill:#E6D3C9;}
	.st1{fill:#FFFFFF;}
	.st2{fill:#E6E7E8;}
	.st3{fill:#727376;}
</style>
<symbol  id="Deleted_Symbol" viewBox="-2.1 -2.1 4.2 4.2">
	<ellipse class="st0" cx="0" cy="0" rx="1.8" ry="1.8"/>
</symbol>
<symbol  id="Deleted_Symbol_2" viewBox="-7.9 -5.2 15.8 10.3">
	<path d="M7.8,4.5l-0.5,0l0,0.3L6.7,4.9c0,0,0-0.1,0-0.2c0,0-0.1-0.2-0.1-0.3L-1,4.7l0,0.1l-3.7,0.1l0,0.1l-0.1,0.2l-0.5,0l-0.1-0.1
		l0-0.2l-0.1,0c0,0-0.3-0.2-0.6-0.4l0,0.1c0,0,0,0.1-0.1,0.1c-0.1,0-0.3-0.1-0.4-0.1c-0.1,0-0.3,0.1-0.5,0.1
		c-0.2-0.1-0.2-0.3-0.2-0.4c0-0.1,0.2-0.5,0.5-0.7c-0.1-0.1-0.1-0.2-0.1-0.3c0-0.1-0.2-0.8-1-0.8l-0.1-0.2l0-0.2c0,0,0.8,0,1.1-0.5
		c0.3-0.5,0.3-0.8,0.1-1.2C-6.8-0.1-7.9-3-7.9-3.3c0-0.3,0-1.1,0.2-1.2L-7-4.6C-7-4.6-7-4.8-7-4.8c0.1,0,1.9-0.3,2.3-0.3
		C-4.2-5.2-4.1-5.1-4-5c0,0.1,0,0.2-0.1,0.2c-0.1,0.1-0.1,0.3-0.1,0.3l-0.1,0C-4.1-4.4-4-4.2-3.9-3.9c0.1,0.5,0.7,2.3,0.8,2.8
		C-3-0.6-2.6-0.4-2.2-0.5c0.3-0.1,1.4-0.1,1.7-0.1c0.2,0,1.4,0.2,1.6,0.4l0,0.1c0,0-0.1,0.2,0,0.7c0.1,0.5,0.7,1.3,1.3,1.2l3.7,0
		L6,2l1.2,0c0,0,0.1,0.3,0.1,0.4c0,0.1-0.1,0.3-0.1,0.3l0,0.8l0.5,0c0,0,0.1,0,0.1,0.5C7.9,4.5,7.8,4.5,7.8,4.5z M-1-0.4
		C-2-0.3-2.7,0-2.7,0.7c0,0.4,0.3,0.7,0.7,0.9l0.3,0c0,0,0-0.1,0.1-0.2c0.2-0.1,0.2-0.1,0.2-0.1S-1.4,0-0.3,0l0.2,0.2
		c0,0-1.4,0.1-0.8,1.4l0.8,0c0.5-0.2,0.8-0.5,0.8-0.9C0.6,0.1-0.1-0.4-1-0.4z"/>
</symbol>
<g id="Background">
</g>
<g id="Picture">
	<g id="AFP_3_">
		<g id="AFP">
		</g>
	</g>
	<g id="Nouveau_symbole_2">
	</g>
	<rect class="st1" width="141.4" height="86"/>
	<circle class="st2" cx="69.4" cy="44.2" r="25.7"/>
	<path class="st3" d="M88.1,51.9l0-0.6l0.3-0.1l-0.1-3L88,48.2c0,0,0.2-0.6-0.2-0.8c-0.4-0.1-0.8-0.2-0.8-0.2l-0.6-0.5
		c0,0-0.3,0-0.4,0.2c0,0.2-0.2,0.5-0.2,0.5l-12.7,0l0,0.4h-6.1l-0.2-0.3l-13.4,0.1c0,0-0.2-0.5-0.2-0.8c0-0.2-0.6-0.2-0.7-0.2
		c-0.1,0-0.4,1-0.4,1h-1.4c0,0-0.4,0-0.4,0.6c0,0.6-0.1,3.3-0.1,3.3s0.2,0.1,0.1,0.2c-0.1,0.1-0.2,0.1-0.2,0.1l0.1,0.7
		c0,0-0.5,0.4-0.5,1c0,0.5,0.1,0.8,0.5,0.8c0.4,0,1.5,0,2.3,0.9c0.8,0.9,1,2,0.6,3.1c-0.4,1.1-0.6,2.3-1.1,3.1
		c-0.5,0.8-2.6,4.1-3.5,6.1c-0.9,2-1.2,3.3-1,3.5c0.1,0.2,2,1.3,2,1.3l9.8,1.2c0,0,1.1,0.2,1.2-0.3c0.1-0.5-0.4-0.6-0.2-1.6
		c0.2-1,0.6-1.7,1.2-1.9c0.6-0.2,0.6-0.2,0.4-0.8c-0.2-0.6-0.3-1.6,0.2-2.3c0.5-0.7,1.4-0.8,1.4-1.2c0-0.3-0.4-1-0.1-1.7
		c0.2-0.6,0.7-1.5,0.7-1.5l0-0.3c0,0,0.4-0.5,1.3-0.5c0.9,0,1.1,0.8,2.5,0.8c1.4,0.1,8.4-0.4,8.4-0.4s0.5-0.2,0.1-0.8
		c-0.3-0.6-0.5-3.5-0.4-4.2c0.2-0.7,0.9-1.4,1.6-1.4c0.7-0.1,0.8-0.1,0.8-0.1l0.3,0.2l6.7-0.2l0.2-0.4l0.3,0l0.1,0.3
		c0,0,1,0,1.4-0.2c0.5-0.2,0.6-0.5,0.6-1c0-0.5,0-0.8,0-0.8l0.2-0.3l0-0.9L88,52.1L88.1,51.9z M74,60.4c-0.6,0.7-1.8,0.7-3.2,0.8
		c-1.4,0.1-3.5,0.3-4-0.1c-0.6-0.4-1.2-0.9-1.3-1.7c-0.2-1,0.4-1.2,0.5-0.7c0.1,0.6,0.3,1,0.6,1.4c0.6,0.8,1.1,1.3,1.3,0.9
		c0.3-0.1,0.5-0.1,0.4-0.7c-0.1-0.5-0.9-1.5-0.7-2.2s0.6-1.3,0.6-1.3s3.7-0.6,4.7-0.6c0.9,0,1.4,0.8,1.5,1.3
		C74.3,57.9,74.5,59.6,74,60.4z"/>
	<path class="st3" d="M34,31c0.5,0.6,0,1.2-1,1.1c-1-0.1-1.4-1.4-1.4-1.4s0.1,1-0.8,1.1c-0.9,0-1.5-5.4-1.8-9.6s-0.5-6.4,0.3-6.5
		c0.7-0.1,0.9,0.5,0.9,0.5s21.5,0.1,22,0c0.5-0.2,0-1.2,0.3-1.4s1.3-0.1,1.6-0.2s0.5-1.2,0.8-1.9s0.7-0.5,0.9-0.6
		c0.2-0.1,0-1.3,0.8-2.1s2.1-0.4,2.6-0.2c0.6,0.1,14.5,1,15.8,1.2c1.2,0.2,1.7,0.7,1.7,1.1c0,0.3,0,2,0,2.9c0,0.9,0,1.2,0.3,1.2
		c0.3,0,0.2-0.2,0.2-0.5c0-0.3,0.2-0.5,0.5-0.4s0.3,0.1,0.9,0.2c0.6,0,0.4,0.5,0.7,0.4c0.3,0,0.3-0.5,0.8-0.5s18.3,0,19,0
		c0.6,0,0.5,0.2,0.6,0.3c0,0.2,0.2,0.1,0.5,0.1s0.2-0.1,0.3-0.3c0.1-0.2,1.7-2.4,2.9-4c1.1-1.6,1.4-1.7,2-1.6c0.6,0,0.8,0.4,0.8,0.8
		c0,0.4,0,5.8,0,6.2s-0.1,0.5,0.2,0.5c0.3,0,4.3,0,4.5,0c0.3,0,0.4,0.1,0.6,0.2c0.2,0.1,1.8,0,2.3,0c0.5,0,0.3-0.2,0.5-0.2
		s12.4,0,12.5,0s0.1-0.2,0.4-0.2s0.3,0.1,0.4,0.2s0.3,0,0.3-0.1s0.2-0.2,0.4-0.2c0.3,0.1,0.1,0.3,0.2,0.3s0.1-0.3,0.2-0.3
		c0.1,0,3.1-0.2,3.3,0c0.2,0.2,0.4,0.2,0.4,1.3c0,1.1-0.2,1.6-0.3,1.6c-0.1,0-2.5,0-2.9,0c-0.4,0-0.6,0-0.6-0.2s-0.4-0.3-0.4,0
		s-0.5,0.2-0.5,0c0-0.2-0.4-0.1-0.3,0.1s-0.5,0.3-0.5,0.1c0-0.2,0.1-0.3-0.7-0.3c-0.7,0-11.7,0.2-11.9,0.1s-2.6-0.4-2.6,0
		c-0.1,0.4-1.3,0.3-2.9,0.2c-1.5,0-1.2,0.2-1.3,0.8c-0.1,0.7-0.1,0.5-0.7,0.6c-0.7,0-0.3,0.5-0.7,0.5c-0.5,0-0.8,0-0.8-0.8
		c0-0.8-0.1-1-0.2-1.1c-0.1-0.1-2.1-0.1-2.8,0c-0.7,0.1-0.3,0.9-0.3,2.1c0,1.1,0.2,2.3-0.3,2.3c-0.5,0-0.5-0.2-0.5-1.7
		s-0.1-2.2-0.5-1.8c-0.3,0.4-0.8,1.4-1.4,1.4c-0.5,0.1-19.5,0.3-19.5-0.1c0-0.3-0.3-0.8-0.4-0.5c-0.1,0.3-0.2,0.8-0.8,0.7
		s-1.1,0.2-1.2-0.2s-0.1-0.9-0.1-1.3c0-0.3-0.5-0.4-0.5,0.1c0,0.5,0.2,0.9-0.3,1.3c-0.5,0.4-1.2,0.7-1.3,1.5s0,2.3,0.3,2.9
		c0.3,0.5,0.1,0.6-0.3,1.3c-0.3,0.7,1.4,9.9,1.7,11.1c0.4,1.2,1,1.9,0.3,2.4c-0.7,0.4-5.6,2.1-6.7,2.2s-1.3-1-2.5-5.6
		s-1.3-8.3-1.5-8.7c-0.1-0.5-2.9-0.2-5-0.2c-2.1,0-2.6-0.2-3,0.3c-0.4,0.5-1.4,1.9-0.9,2.1c0.4,0.3,0.7,0.3,0.6,0.6
		c-0.1,0.3-1,0-1.3,0.1c-0.3,0.2-1.5,2.2-2,3s0.1,1.2,0,1.9c-0.1,0.6-0.6,0.8-3.3,0c-2.7-0.8-3.9-0.6-3.6-1.4
		c0.3-0.8,3.3-4.8,4.5-6.6c1.2-1.7,1.8-2.9,1.8-3.8s-0.3-1.5-0.9-1.9c-0.6-0.4-2.3-0.2-2.3-0.2v-2.5h-0.9v1.2c0,0-2.7,0.1-3.2,0.2
		s-1.2,2.7-1.3,2.8s-1.8,0-2,0c-0.2,0-0.2,0.6-0.2,0.8s-0.2,0.3-0.7,0.3S42,25.7,42,25.2c0-0.5-0.2-0.5-0.5-0.5
		c-0.4,0-0.4,0.3-0.7,0.6c-0.3,0.3-2,1.7-2.7,2.3c-0.7,0.6-0.8,0.7-1,0.4c-0.2-0.3-0.2-0.8-0.1-1.5c0-0.6,0.1-0.6,0.4-1.1
		s-1.3,0.3-2.4,0.9c-1.1,0.6-1.5,0.5-2,2.1C32.4,30,33.5,30.5,34,31z M32.9,30.9c-0.5-0.3-0.5,0.1-0.3,0.3c0.2,0.2,0.6,0.5,0.7,0.3
		S33.2,31.1,32.9,30.9z M35.4,22.4v-0.2c0-0.1-0.1-0.3-0.3-0.3h-4.1c-0.1,0-0.3,0.1-0.3,0.3v0.2c0,0.1,0.1,0.3,0.3,0.3h4.1
		C35.3,22.6,35.4,22.5,35.4,22.4z M61.2,24.9c0,0-1.4,0.5-1.4,1.8c0.1,1.4,0.9,1.7,1.5,1.7c0.6,0,3.3,0,3.8,0c0.6,0,1.1-0.6,1-2
		c-0.1-1.4-0.6-1.5-1.2-1.5c-0.6-0.1-2.1-0.1-2.5,0.1s-0.7,1.1-0.8,1.7s0.7,1.2,0.6,1.4c-0.2,0.1-0.9-0.3-1-1.4s0.3-1.9,0.3-1.9
		C61.5,24.8,61.4,24.8,61.2,24.9z M104.5,11.5h-0.2l-2.9,3.6v0.5h4.1v-1.9h-0.8l-0.2-0.3L104.5,11.5z M75.3,13.1v-0.6
		c0-0.5-0.4-0.9-0.9-0.9H62.3c-0.5,0-0.9,0.4-0.9,0.9v0.6c0,0.5,0.4,0.9,0.9,0.9h12.1C74.9,14,75.3,13.6,75.3,13.1z"/>
</g>
<g id="Map_template">
</g>
<g id="Text">
</g>
<g id="BullesCompareesPlus">
</g>
<g id="Layer_1">
</g>
<g id="_x3C_Layer_x3E_">
</g>
</svg>
