<?xml version="1.0" encoding="utf-8"?>
<!-- Generator: Adobe Illustrator 19.2.1, SVG Export Plug-In . SVG Version: 6.00 Build 0)  -->
<svg version="1.1" xmlns="http://www.w3.org/2000/svg" xmlns:xlink="http://www.w3.org/1999/xlink" x="0px" y="0px"
	 viewBox="0 0 141.4 88.5" style="enable-background:new 0 0 141.4 88.5;" xml:space="preserve">
<style type="text/css">
	
		.Locator_x0020_map_x0020_main_x0020_country{fill-rule:evenodd;clip-rule:evenodd;fill:#FFFFFF;stroke:#93887E;stroke-width:0.25;stroke-miterlimit:3.8637;}
	.Locator_x0020_map_x0020_other_x0020_country{fill:#E6D3C9;}
	.Locator_x0020_map_x0020_sea{fill-rule:evenodd;clip-rule:evenodd;fill:#83C3E2;stroke:#FFFFFF;stroke-miterlimit:3.8637;}
	.st0{stroke:#D1D3D4;stroke-width:2;stroke-miterlimit:10;}
	.st1{fill:#FFFFFF;}
	.st2{fill:#E6E7E8;}
	.st3{fill:#727376;}
</style>
<symbol  id="Deleted_Symbol_2" viewBox="-7.9 -5.2 15.8 10.3">
	<path d="M7.8,4.5l-0.5,0l0,0.3L6.7,4.9c0,0,0-0.1,0-0.2c0,0-0.1-0.2-0.1-0.3L-1,4.7l0,0.1l-3.7,0.1l0,0.1l-0.1,0.2l-0.5,0l-0.1-0.1
		l0-0.2l-0.1,0c0,0-0.3-0.2-0.6-0.4l0,0.1c0,0,0,0.1-0.1,0.1c-0.1,0-0.3-0.1-0.4-0.1c-0.1,0-0.3,0.1-0.5,0.1
		c-0.2-0.1-0.2-0.3-0.2-0.4c0-0.1,0.2-0.5,0.5-0.7c-0.1-0.1-0.1-0.2-0.1-0.3c0-0.1-0.2-0.8-1-0.8l-0.1-0.2l0-0.2c0,0,0.8,0,1.1-0.5
		c0.3-0.5,0.3-0.8,0.1-1.2C-6.8-0.1-7.9-3-7.9-3.3c0-0.3,0-1.1,0.2-1.2L-7-4.6C-7-4.6-7-4.8-7-4.8c0.1,0,1.9-0.3,2.3-0.3
		C-4.2-5.2-4.1-5.1-4-5c0,0.1,0,0.2-0.1,0.2c-0.1,0.1-0.1,0.3-0.1,0.3l-0.1,0C-4.1-4.4-4-4.2-3.9-3.9c0.1,0.5,0.7,2.3,0.8,2.8
		C-3-0.6-2.6-0.4-2.2-0.5c0.3-0.1,1.4-0.1,1.7-0.1c0.2,0,1.4,0.2,1.6,0.4l0,0.1c0,0-0.1,0.2,0,0.7c0.1,0.5,0.7,1.3,1.3,1.2l3.7,0
		L6,2l1.2,0c0,0,0.1,0.3,0.1,0.4c0,0.1-0.1,0.3-0.1,0.3l0,0.8l0.5,0c0,0,0.1,0,0.1,0.5C7.9,4.5,7.8,4.5,7.8,4.5z M-1-0.4
		C-2-0.3-2.7,0-2.7,0.7c0,0.4,0.3,0.7,0.7,0.9l0.3,0c0,0,0-0.1,0.1-0.2c0.2-0.1,0.2-0.1,0.2-0.1S-1.4,0-0.3,0l0.2,0.2
		c0,0-1.4,0.1-0.8,1.4l0.8,0c0.5-0.2,0.8-0.5,0.8-0.9C0.6,0.1-0.1-0.4-1-0.4z"/>
</symbol>
<g id="Background">
</g>
<g id="Picture">
	<g id="AFP_3_">
		<g id="AFP">
		</g>
	</g>
	<line class="st0" x1="-250.8" y1="-98.9" x2="-250.8" y2="382.7"/>
	<rect class="st1" width="141.4" height="86"/>
	<g>
		<circle class="st2" cx="61.6" cy="45" r="25.7"/>
		<g>
			<g>
				<path class="st3" d="M120.4,34.9l0,0.3l-7.4,0l-0.4,0.2l-3.2,0l0-0.3l-4.3,0l0-6.1c0,0-0.4-0.6-1.3-0.6c0,0-0.7,0-1,0.3
					l-3.7,4.4l0,0.8l-1.3,0l-0.5-0.4l-0.3-0.2l-19.6,0l-0.3,0.3l0,0.4l-0.7,0l0-0.5l-1.9,0l0,0.6l-0.7,0l0-2.8c0,0,0.2-2-1.8-2.2
					l-15.8-0.9l-3.4,0c0,0-1,0.5-1,1l0,1.3l-0.6,0L51,31.9l0,1l-1,0l0,0.3l-1.5,0.5l0,1.1l-2.1,0l0,0.3l-0.4,0l0-0.3l-21.9,0l0-0.4
					l-1.1,0L23,34.7c0,0-0.6,0.7-0.5,1.8c0,0,1.1,10.1,2.8,13c0,0,0.7,0.3,1.2,0.1c0,0,1.4,0.7,2.2,0.4l0.7-0.7c0,0-0.3-1.1-1.8-1.1
					l0-1.2l1.6-1.8l2.7-1.4l0,2l0.7,0l3.8-2.5l1.1,0l0,0.5l1.2,0l0,0.3l0.2,0l0-0.3l0.3,0l0-0.4l1.7,0l0-0.5l0.8,0l0-1.6
					c0,0,0.1-1.3,2.3-1.4l1.6,0l0-0.9l1.8,0l0.3,0.5l0,1.5l1.5,0c0,0,2.6,0.2,1.9,3.3l-6.1,8.4c0,0,2.2,1.1,4.9,1.4
					c0,0,1.4,0.2,1.9-0.1c0,0,0.4-0.3-0.2-1.1l2.2-3.6l1.1-0.1l0.1-0.3l-0.6-0.5l0.3-0.6l1.1-1.2l2.2,0l0.2-0.1l4.6,0l0,0.2l1.5,0
					c0,0,1.8,9.8,3.4,12.2l5.6-1.7l1,0.2L75,57l-0.1-0.7L72.6,50l-0.5-3.3l0-1.6l0.7,0l0-1.2l-0.3,0l0-3.1l1-0.8l0.4,0l0-1l0.7,0
					l0,0.3l1.1,0l0.2-0.2l0.6,0l0-0.2l0.7,0l0,0.5l19.9,0l0.7-0.6l0.9,0l0.4,0l0,0.3l-0.2,0.2l0,1.5l0.9,1l0.4,0l0-1.7l-0.4-0.7
					l0-0.5l-0.4,0l0-0.6l0.7,0l0-0.8l3.3,0l0,1l0.3,0l0,0.6l1.1,0l0.2-0.2l1,0l0-1.1l-1,0l0-0.7l4.7,0l0-0.3l2.8,0l0,0.3l7.8,0
					l0.4,0.2l7.1,0l0-2.3L120.4,34.9z M28.4,48.8c0.5,0.4-0.1,0.8-0.1,0.8c-0.7,0.1-1.2-0.2-1.2-0.2l0-0.5L28.4,48.8z M63.5,45
					l-0.8,1l-4.6,0l-1.1-1.2l0-0.9c0.1-0.5,0.7-0.9,0.7-0.9l0.3,0l4,0l0.9,0l0.7,0.7L63.5,45z M72.6,31.7l-0.7,0
					c-0.4,0-0.7,0.6-0.7,0.6l-12.1,0c0-0.3-1.1-0.6-1.1-0.6l0-1.3l0.5,0l0-0.4l13.3,0l0.9,0.6L72.6,31.7z M99.6,40.1l0.2,0.3l0,0.8
					l-0.5-0.5l0-0.6L99.6,40.1z M104.3,33.9l-3.9,0l-0.5-0.5l0-0.3l2.5-2.9l1.2,0l0,1.1l0.4,0.4l0.5,0L104.3,33.9z M127.1,36.5
					l-3.6,0l0-0.5l3.6,0L127.1,36.5z"/>
				<path class="st3" d="M58.5,43l0,1.7c0,0,0.2,0.6,0.7,0.9c0,0-0.4-0.5-0.4-1.1c0,0,0.4-1.5,0.7-1.6L58.5,43z"/>
			</g>
		</g>
	</g>
</g>
<g id="Foreground">
</g>
<g id="Text">
</g>
<g id="Thailand_x5F_flag2_xA0_Image">
</g>
</svg>
