<?xml version="1.0" encoding="utf-8"?>
<!-- Generator: Adobe Illustrator 19.2.1, SVG Export Plug-In . SVG Version: 6.00 Build 0)  -->
<svg version="1.1" xmlns="http://www.w3.org/2000/svg" xmlns:xlink="http://www.w3.org/1999/xlink" x="0px" y="0px"
	 viewBox="0 0 141.4 86" style="enable-background:new 0 0 141.4 86;" xml:space="preserve">
<style type="text/css">
	.st0{fill-rule:evenodd;clip-rule:evenodd;stroke:#FFFFFF;stroke-width:0.5;}
	.Locator_x0020_map_x0020_sea{fill-rule:evenodd;clip-rule:evenodd;fill:#83C3E2;stroke:#FFFFFF;stroke-miterlimit:3.8637;}
	
		.Locator_x0020_map_x0020_main_x0020_country{fill-rule:evenodd;clip-rule:evenodd;fill:#FFFFFF;stroke:#93887E;stroke-width:0.25;stroke-miterlimit:3.8637;}
	.Locator_x0020_map_x0020_other_x0020_country{fill:#E6D3C9;}
	.st1{fill:#FFFFFF;}
	.st2{fill:#E6E7E8;}
	.st3{fill:#727376;}
</style>
<symbol  id="Deleted_Symbol" viewBox="-2.1 -2.1 4.2 4.2">
	<ellipse class="st0" cx="0" cy="0" rx="1.8" ry="1.8"/>
</symbol>
<symbol  id="Deleted_Symbol_2" viewBox="-7.9 -5.2 15.8 10.3">
	<path d="M7.8,4.5l-0.5,0l0,0.3L6.7,4.9c0,0,0-0.1,0-0.2c0,0-0.1-0.2-0.1-0.3L-1,4.7l0,0.1l-3.7,0.1l0,0.1l-0.1,0.2l-0.5,0l-0.1-0.1
		l0-0.2l-0.1,0c0,0-0.3-0.2-0.6-0.4l0,0.1c0,0,0,0.1-0.1,0.1c-0.1,0-0.3-0.1-0.4-0.1c-0.1,0-0.3,0.1-0.5,0.1
		c-0.2-0.1-0.2-0.3-0.2-0.4c0-0.1,0.2-0.5,0.5-0.7c-0.1-0.1-0.1-0.2-0.1-0.3c0-0.1-0.2-0.8-1-0.8l-0.1-0.2l0-0.2c0,0,0.8,0,1.1-0.5
		c0.3-0.5,0.3-0.8,0.1-1.2C-6.8-0.1-7.9-3-7.9-3.3c0-0.3,0-1.1,0.2-1.2L-7-4.6C-7-4.6-7-4.8-7-4.8c0.1,0,1.9-0.3,2.3-0.3
		C-4.2-5.2-4.1-5.1-4-5c0,0.1,0,0.2-0.1,0.2c-0.1,0.1-0.1,0.3-0.1,0.3l-0.1,0C-4.1-4.4-4-4.2-3.9-3.9c0.1,0.5,0.7,2.3,0.8,2.8
		C-3-0.6-2.6-0.4-2.2-0.5c0.3-0.1,1.4-0.1,1.7-0.1c0.2,0,1.4,0.2,1.6,0.4l0,0.1c0,0-0.1,0.2,0,0.7c0.1,0.5,0.7,1.3,1.3,1.2l3.7,0
		L6,2l1.2,0c0,0,0.1,0.3,0.1,0.4c0,0.1-0.1,0.3-0.1,0.3l0,0.8l0.5,0c0,0,0.1,0,0.1,0.5C7.9,4.5,7.8,4.5,7.8,4.5z M-1-0.4
		C-2-0.3-2.7,0-2.7,0.7c0,0.4,0.3,0.7,0.7,0.9l0.3,0c0,0,0-0.1,0.1-0.2c0.2-0.1,0.2-0.1,0.2-0.1S-1.4,0-0.3,0l0.2,0.2
		c0,0-1.4,0.1-0.8,1.4l0.8,0c0.5-0.2,0.8-0.5,0.8-0.9C0.6,0.1-0.1-0.4-1-0.4z"/>
</symbol>
<g id="Background">
</g>
<g id="Picture">
	<g id="AFP_3_">
		<g id="AFP">
		</g>
	</g>
	<g id="Nouveau_symbole_2">
	</g>
	<rect class="st1" width="141.4" height="86"/>
	<g>
		<circle class="st2" cx="62.5" cy="43" r="25.7"/>
		<g>
			<path class="st3" d="M75.1,37.7c0.5-0.6,1.5-0.7,2.4-0.2c0.4,0.2,0.6,0.3,0.9-0.2c0.2-0.4,0.6-0.2,1-0.2c5.8,0,11.5,0,17.3,0
				c0.8,0,1.7,0,2.5-0.1c0.4,0,0.8,0,1.2,0.3c0.5,0.4,0.9,0.4,1.3-0.2c1.5-2,3-3.9,4.5-5.8c0.3-0.4,0.6-0.6,1.1-0.5
				c0.6,0.1,1.1,0.4,1.3,1.1c0.1,0.4,0.1,0.8,0.1,1.1c0,1.8,0,3.5,0,5.3c0,0.7,0.2,1,0.9,0.9c7.2-0.2,14.4-0.3,21.6-0.3
				c0.2,0,0.4,0,0.6,0c0.4,0,1-0.3,1.3,0.3c0.3,0.6,0.3,1.3,0.1,2c-0.2,0.4-0.5,0.3-0.9,0.3c-2.2,0-4.4,0.1-6.6,0.1
				c-5.3,0.1-10.6,0.1-16,0.2c-0.7,0-1.2,0.1-1.1,1c0,0.5-0.3,0.7-0.8,0.9c-1,0.3-1.9,0.4-2.9,0.5c-0.6,0-1-0.2-1-0.9
				c0-0.4-0.1-0.7-0.6-0.7c-0.4,0-1-0.2-1.2,0.4c-0.3,0.9-1.3,0.9-1.9,1.3c-0.3,0.2-0.7,0.1-1.1,0.1c-6.5,0.2-13,0.4-19.6,0.6
				c-0.4,0-0.8,0-0.9-0.4c-0.1-0.2-0.3-0.3-0.5-0.1c-0.4,0.4-0.9,0.4-1.4,0.5c-0.5,0.1-1,0.2-1.3-0.6c-0.1,0.6-0.5,0.9-0.9,1.2
				c-0.5,0.3-0.8,0.8-0.8,1.4c0.1,1-0.2,2.1,0.4,3.1c0.2,0.3,0.2,0.9-0.3,1.1c-0.4,0.2-0.5,0.5-0.5,0.9c0.2,0.9-0.3,1.4-1.1,1.5
				c-2.3,0.2-4.4,1.1-6.7,1.3c-1.1,0.1-1.3-0.1-1.4-1.1c0-0.5-0.3-0.7-0.8-0.7c-0.2,0-0.5,0-0.7,0.1c-1.5,0.5-2.9,0.5-4.4,0.1
				c-0.8-0.2-1.7,0-2.5-0.1c-0.4,0-0.5,0.3-0.7,0.5c-1.1,2.2-2.2,4.4-3.2,6.7c-0.2,0.3-0.2,0.7,0,1c0.3,0.8-0.1,1.4-1,1.3
				c-2.1-0.3-4.3-0.7-6.3-1.4c-0.8-0.3-0.9-0.5-0.5-1.3c1.3-2.6,2.8-5,4.5-7.3c0.7-1,1.2-2,1.1-3.2c0-0.4-0.1-0.9-0.4-1.1
				c-0.9-0.4-1.3-1.3-2.1-1.8c-0.4-0.2-0.3-0.6-0.3-1c-0.2-1.4-0.6-1.8-2-1.8c-8.4,0-15.9,5.9-23.1,9.8c-3.9,2.1-9.8,6.8-11.1,0.5
				c-0.9-4.3-1.7-8.5-2.1-12.9c0-0.2,0-0.4,0-0.6c0.1-1.3,0.7-1.7,1.8-1.1c0.4,0.2,0.7,0.2,1.1,0.2c4.6-0.2,9.2-0.3,13.7-0.3
				c2.4,0,4.8-0.4,7.1-0.1c3.8,0.5,7.5,0.1,11.2,0.3c1.4,0.1,2.6-0.7,3.9-0.6c0.3,0,0.5-0.2,0.6-0.7c0.1-1,0.6-1.4,1.6-1.4
				c1.1,0,2.1,0,3.2,0c0.5,0,0.7-0.1,0.7-0.7c-0.1-1.3-0.3-2.7-0.1-4c0.1-0.6,0.2-0.9,0.8-1c0.6-0.1,0.9,0.2,1.1,0.7
				c0.3,0.7,0.1,1.5,0.3,2.2c0.1,0.4,0.3,0.7,0.7,0.7c0.4,0,0.7,0.2,1.1,0.2c0.9,0.1,1.6,0.4,1.5,1.5c0,0.2,0.1,0.4,0.2,0.4
				c0.6-0.6,1.3,0,1.9-0.1c0.6-0.1,1.4-0.4,2.1,0.1c0.2,0.1,0.3,0.1,0.5,0c0.1-0.1,0.2-0.2,0.2-0.2c0.7,0.5,1.5-0.4,2.1,0.2
				c0.1,0.1,0.3,0.1,0.4,0c0.3-0.4,0.9,0,1-0.1c0.7-0.4,1.4,0.2,2-0.1c0.2-0.1,0.4-0.1,0.5,0c0.3,0.3,0.6,0.2,0.9,0
				c0.2-0.1,0.4-0.1,0.5,0c0.3,0.3,0.6,0.3,0.9-0.1c0,0,0.1-0.1,0.1-0.1c0.8,0.6,1.5-0.2,2.2-0.1C75.2,36.5,75,37.2,75.1,37.7z
				 M58.1,48.7c-0.8,0.2-1.3,0.5-1.5,1.2c-0.2,0.7,0.1,1.3,0.6,1.7c1.2,1,3.8,1.3,5.2,0.4c0.6-0.4,1.1-1,1.1-1.7
				c0-0.8-0.5-1.3-1.3-1.5c-0.7-0.2-1.3-0.1-1.9-0.1c-1,0-1.4,0.4-1.6,1.4c-0.1,0.5,0,1,0.3,1.4c0.1,0.2,0.3,0.4,0,0.6
				c-0.2,0.1-0.3-0.1-0.5-0.3C57.9,50.9,57.7,49.9,58.1,48.7z M107.5,36.7c0-0.7,0.2-1.4-0.7-1.7c-0.2-0.1-0.3-0.4-0.3-0.6
				c0-0.4,0-0.8-0.5-0.8c-0.4-0.1-0.6,0.2-0.8,0.5c-0.6,0.8-1.2,1.5-1.7,2.3c-0.2,0.3-0.7,0.5-0.4,1c0.2,0.4,0.6,0.2,1,0.2
				c0.6,0,1.2,0,1.6,0.6c0.3,0.4,0.9,0.2,1.4,0.1c0.4-0.1,0.5-0.5,0.5-0.8C107.5,37.2,107.5,37,107.5,36.7z"/>
		</g>
	</g>
</g>
<g id="Map_template">
</g>
<g id="Text">
</g>
<g id="BullesCompareesPlus">
</g>
<g id="Layer_1">
</g>
<g id="_x3C_Layer_x3E_">
</g>
</svg>
