<?xml version="1.0" encoding="utf-8"?>
<!-- Generator: Adobe Illustrator 19.2.1, SVG Export Plug-In . SVG Version: 6.00 Build 0)  -->
<svg version="1.1" xmlns="http://www.w3.org/2000/svg" xmlns:xlink="http://www.w3.org/1999/xlink" x="0px" y="0px"
	 viewBox="0 0 141.4 86" style="enable-background:new 0 0 141.4 86;" xml:space="preserve">
<style type="text/css">
	.st0{fill-rule:evenodd;clip-rule:evenodd;stroke:#FFFFFF;stroke-width:0.5;}
	.Locator_x0020_map_x0020_sea{fill-rule:evenodd;clip-rule:evenodd;fill:#83C3E2;stroke:#FFFFFF;stroke-miterlimit:3.8637;}
	
		.Locator_x0020_map_x0020_main_x0020_country{fill-rule:evenodd;clip-rule:evenodd;fill:#FFFFFF;stroke:#93887E;stroke-width:0.25;stroke-miterlimit:3.8637;}
	.Locator_x0020_map_x0020_other_x0020_country{fill:#E6D3C9;}
	.st1{fill:#FFFFFF;}
	.st2{fill:#E6E7E8;}
	.st3{fill:#727376;}
</style>
<symbol  id="Deleted_Symbol" viewBox="-2.1 -2.1 4.2 4.2">
	<ellipse class="st0" cx="0" cy="0" rx="1.8" ry="1.8"/>
</symbol>
<symbol  id="Deleted_Symbol_2" viewBox="-7.9 -5.2 15.8 10.3">
	<path d="M7.8,4.5l-0.5,0l0,0.3L6.7,4.9c0,0,0-0.1,0-0.2c0,0-0.1-0.2-0.1-0.3L-1,4.7l0,0.1l-3.7,0.1l0,0.1l-0.1,0.2l-0.5,0l-0.1-0.1
		l0-0.2l-0.1,0c0,0-0.3-0.2-0.6-0.4l0,0.1c0,0,0,0.1-0.1,0.1c-0.1,0-0.3-0.1-0.4-0.1c-0.1,0-0.3,0.1-0.5,0.1
		c-0.2-0.1-0.2-0.3-0.2-0.4c0-0.1,0.2-0.5,0.5-0.7c-0.1-0.1-0.1-0.2-0.1-0.3c0-0.1-0.2-0.8-1-0.8l-0.1-0.2l0-0.2c0,0,0.8,0,1.1-0.5
		c0.3-0.5,0.3-0.8,0.1-1.2C-6.8-0.1-7.9-3-7.9-3.3c0-0.3,0-1.1,0.2-1.2L-7-4.6C-7-4.6-7-4.8-7-4.8c0.1,0,1.9-0.3,2.3-0.3
		C-4.2-5.2-4.1-5.1-4-5c0,0.1,0,0.2-0.1,0.2c-0.1,0.1-0.1,0.3-0.1,0.3l-0.1,0C-4.1-4.4-4-4.2-3.9-3.9c0.1,0.5,0.7,2.3,0.8,2.8
		C-3-0.6-2.6-0.4-2.2-0.5c0.3-0.1,1.4-0.1,1.7-0.1c0.2,0,1.4,0.2,1.6,0.4l0,0.1c0,0-0.1,0.2,0,0.7c0.1,0.5,0.7,1.3,1.3,1.2l3.7,0
		L6,2l1.2,0c0,0,0.1,0.3,0.1,0.4c0,0.1-0.1,0.3-0.1,0.3l0,0.8l0.5,0c0,0,0.1,0,0.1,0.5C7.9,4.5,7.8,4.5,7.8,4.5z M-1-0.4
		C-2-0.3-2.7,0-2.7,0.7c0,0.4,0.3,0.7,0.7,0.9l0.3,0c0,0,0-0.1,0.1-0.2c0.2-0.1,0.2-0.1,0.2-0.1S-1.4,0-0.3,0l0.2,0.2
		c0,0-1.4,0.1-0.8,1.4l0.8,0c0.5-0.2,0.8-0.5,0.8-0.9C0.6,0.1-0.1-0.4-1-0.4z"/>
</symbol>
<g id="Background">
</g>
<g id="Picture">
	<g id="AFP_3_">
		<g id="AFP">
		</g>
	</g>
	<g id="Nouveau_symbole_2">
	</g>
	<rect class="st1" width="141.4" height="86"/>
	<g>
		<circle class="st2" cx="65.9" cy="43" r="25.7"/>
		<path class="st3" d="M87.7,33.2v-1.3c0,0,0-0.5-0.2-0.6h-0.3V31c0,0,0.1-0.4-0.8-0.4l-0.5-0.7h-0.3l-0.3,0.7H52.9l-0.3-0.8h-0.5
			l-0.3,0.9h-1.4c0,0-0.4-0.1-0.4,0.5c0,0.6,0,3.8,0,3.8s-0.7,0.8-0.4,1.6c0,0,0.4,0.3,1.1,0.2c0,0,2.2,0.6,2,3c0,0-0.4,2.7-1.5,4.7
			c0,0-4.6,6.6-4.2,9.9c0,0,1,1.2,1.6,1.3h1.2c0,0-0.7,1-0.2,1.4h7.9c0,0,0.6-0.1,0.5-1.4c0,0-0.2,0-0.3,0h0.3h0.5
			c0,0,0.7-0.3,0.6-1.8c0,0,0.1-0.5,0.3-1l0.7-1.8c0,0,1.2-0.6,0.8-1.2c0,0-0.3-1,0.3-2.1c0,0,0.6-0.5,0.8-0.6c0,0,0.6-0.1,0.3-0.7
			c0,0-0.3-0.9,0.4-2.1c0,0,0.6-1.6,2-0.9c0,0,0.4,0.4,1.8,0.5H73c0,0,0.9-0.1,0.7-0.8c0,0-0.6-1-0.4-3.1c0,0,0-1.6,1.3-1.9h7
			c0,0,0.3-0.2,0.3-0.5h0.4V38h4.2c0,0,0.5-0.2,0.6-1.3v-0.6c0,0,0.3-0.4,0-1.2v-0.5h0.3C87.4,34.4,87.8,34.2,87.7,33.2z M70.4,42.8
			c-3.9,0.2-4.6,0-4.6,0c-2.3-1-1.3-2.9-1.3-2.9l0.2,0.1c0.2,0.2,0.1,0.5,0.1,0.5c0.7,2.1,1.9,2.2,1.9,2.2c0.3,0,0.3-0.5,0.3-0.5
			l-0.7-1.8c0-0.7,0.4-1.6,0.4-1.6l4-0.4c1.1,0.2,1.4,1.4,1.4,1.4v1.7C71.9,42.7,70.4,42.8,70.4,42.8z"/>
	</g>
</g>
<g id="Map_template">
</g>
<g id="Text">
</g>
<g id="BullesCompareesPlus">
</g>
<g id="Layer_1">
</g>
<g id="_x3C_Layer_x3E_">
</g>
</svg>
