<?xml version="1.0" encoding="utf-8"?>
<!-- Generator: Adobe Illustrator 19.2.1, SVG Export Plug-In . SVG Version: 6.00 Build 0)  -->
<svg version="1.1" xmlns="http://www.w3.org/2000/svg" xmlns:xlink="http://www.w3.org/1999/xlink" x="0px" y="0px"
	 viewBox="0 0 141.4 86" style="enable-background:new 0 0 141.4 86;" xml:space="preserve">
<style type="text/css">
	.st0{fill-rule:evenodd;clip-rule:evenodd;stroke:#FFFFFF;stroke-width:0.5;}
	.Locator_x0020_map_x0020_sea{fill-rule:evenodd;clip-rule:evenodd;fill:#83C3E2;stroke:#FFFFFF;stroke-miterlimit:3.8637;}
	
		.Locator_x0020_map_x0020_main_x0020_country{fill-rule:evenodd;clip-rule:evenodd;fill:#FFFFFF;stroke:#93887E;stroke-width:0.25;stroke-miterlimit:3.8637;}
	.Locator_x0020_map_x0020_other_x0020_country{fill:#E6D3C9;}
	.st1{fill:#FFFFFF;}
	.st2{fill:#E6E7E8;}
	.st3{fill:#727376;}
</style>
<symbol  id="Deleted_Symbol" viewBox="-2.1 -2.1 4.2 4.2">
	<ellipse class="st0" cx="0" cy="0" rx="1.8" ry="1.8"/>
</symbol>
<symbol  id="Deleted_Symbol_2" viewBox="-7.9 -5.2 15.8 10.3">
	<path d="M7.8,4.5l-0.5,0l0,0.3L6.7,4.9c0,0,0-0.1,0-0.2c0,0-0.1-0.2-0.1-0.3L-1,4.7l0,0.1l-3.7,0.1l0,0.1l-0.1,0.2l-0.5,0l-0.1-0.1
		l0-0.2l-0.1,0c0,0-0.3-0.2-0.6-0.4l0,0.1c0,0,0,0.1-0.1,0.1c-0.1,0-0.3-0.1-0.4-0.1c-0.1,0-0.3,0.1-0.5,0.1
		c-0.2-0.1-0.2-0.3-0.2-0.4c0-0.1,0.2-0.5,0.5-0.7c-0.1-0.1-0.1-0.2-0.1-0.3c0-0.1-0.2-0.8-1-0.8l-0.1-0.2l0-0.2c0,0,0.8,0,1.1-0.5
		c0.3-0.5,0.3-0.8,0.1-1.2C-6.8-0.1-7.9-3-7.9-3.3c0-0.3,0-1.1,0.2-1.2L-7-4.6C-7-4.6-7-4.8-7-4.8c0.1,0,1.9-0.3,2.3-0.3
		C-4.2-5.2-4.1-5.1-4-5c0,0.1,0,0.2-0.1,0.2c-0.1,0.1-0.1,0.3-0.1,0.3l-0.1,0C-4.1-4.4-4-4.2-3.9-3.9c0.1,0.5,0.7,2.3,0.8,2.8
		C-3-0.6-2.6-0.4-2.2-0.5c0.3-0.1,1.4-0.1,1.7-0.1c0.2,0,1.4,0.2,1.6,0.4l0,0.1c0,0-0.1,0.2,0,0.7c0.1,0.5,0.7,1.3,1.3,1.2l3.7,0
		L6,2l1.2,0c0,0,0.1,0.3,0.1,0.4c0,0.1-0.1,0.3-0.1,0.3l0,0.8l0.5,0c0,0,0.1,0,0.1,0.5C7.9,4.5,7.8,4.5,7.8,4.5z M-1-0.4
		C-2-0.3-2.7,0-2.7,0.7c0,0.4,0.3,0.7,0.7,0.9l0.3,0c0,0,0-0.1,0.1-0.2c0.2-0.1,0.2-0.1,0.2-0.1S-1.4,0-0.3,0l0.2,0.2
		c0,0-1.4,0.1-0.8,1.4l0.8,0c0.5-0.2,0.8-0.5,0.8-0.9C0.6,0.1-0.1-0.4-1-0.4z"/>
</symbol>
<g id="Background">
</g>
<g id="Picture">
	<g id="AFP_3_">
		<g id="AFP">
		</g>
	</g>
	<g id="Nouveau_symbole_2">
	</g>
	<rect class="st1" width="141.4" height="86"/>
	<g>
		<circle class="st2" cx="66" cy="43" r="25.7"/>
		<g>
			<path class="st3" d="M24.4,50.3C24,50.4,21.6,49,20,48.1c-1.6-0.9-1.9-1.4-2-1.9c-0.2-0.5,0.6-1.2,2.8-2.8s10.7-5.9,10.7-5.9
				s0,0,0.1-0.3c0.1-0.3,0.4,0.1,0.6,0c0.2-0.1,2.1-1.1,5.4-1.6c3.3-0.5,23.7-0.6,23.7-0.6v0.3c0,0,60.3,0,61.1,0c0.8,0,1,0.6,1,1.5
				c0,0.9-0.1,1.6-0.9,1.6c-0.8,0-2.9,0-2.9,0l0,0.6c0,0,0.5-0.1,1.2,0.2c0.8,0.3,0.8,1.3,0.8,1.3s0.2,0,0.8,0
				c0.5,0,0.7,0.2,0.7,0.4c0,0.2,0.2,0.7-0.5,0.7s-0.6-0.1-0.7,0c-0.1,0.1-0.6,1.4-1.2,1.7s-3.2,0.4-3.5,0.2
				c-0.4-0.1-0.2-0.6-0.4-0.6c-0.2,0-27.3,0.6-28.3,0.6c-1,0-1.5,0-1.8,0.3c-0.3,0.4-24.2,0.2-24.7,0.1c-0.4,0-0.6,0-0.8,0.4
				c-0.2,0.3-1.2,0.1-1.9,0.1c-0.6-0.1-0.2-0.5-0.7-0.5c-0.5,0-8.9-0.2-9.8,0s-0.5,0.5-1.2,0.7c-0.7,0.2-1.5,0-2,0.5
				c-0.5,0.5-1.3,0.5-2.2,0.9s-1.7,2.4-4.6,2.5c-2.9,0.2-4.6-0.4-5-1.5c-0.3-1.1-0.2-1.8-0.8-2s-3.7,0.6-5.8,2.2
				C25.4,48.6,24.8,50.2,24.4,50.3z M86.9,39.8l29.5-0.5v-0.7l-29.5,0.5V39.8z M36.4,46.5c0,1,0.5,1.1,0.3,1.2
				c-0.2,0.1-0.5-0.3-0.7-0.8c-0.2-0.5-0.1-1.3-0.1-1.3s-0.9,0.4-0.7,1.1c0.1,0.7,0.8,1.4,3.1,1.2c2.3-0.2,3.6-1,3.3-2.3
				c-0.2-1.2-2.5-1.6-3.7-1.1C36.4,45.2,36.4,45.5,36.4,46.5z"/>
			<path class="st3" d="M62,39c0,0,0.1,0.1,0.1,0.2c0-0.1,0.1-0.2,0.1-0.2c0,0,0.1,0.1,0.1,0.2c0-0.1,0.1-0.2,0.1-0.2
				c0,0,0.1,0.1,0.1,0.2c0-0.1,0.1-0.2,0.1-0.2c0,0,0.1,0.1,0.1,0.2c0-0.1,0.1-0.2,0.1-0.2c0,0,0.1,0.1,0.1,0.2
				c0-0.1,0.1-0.2,0.1-0.2c0,0,0.1,0.1,0.1,0.2c0-0.1,0.1-0.2,0.1-0.2c0,0,0.1,0.1,0.1,0.2c0-0.1,0.1-0.2,0.1-0.2
				c0,0,0.1,0.1,0.1,0.2c0-0.1,0.1-0.2,0.1-0.2c0,0,0.1,0.1,0.1,0.2c0-0.1,0.1-0.2,0.1-0.2c0,0,0.1,0.1,0.1,0.2
				c0-0.1,0.1-0.2,0.1-0.2c0,0,0.1,0.1,0.1,0.2c0-0.1,0.1-0.2,0.1-0.2c0,0,0.1,0.1,0.1,0.2c0-0.1,0.1-0.2,0.1-0.2
				c0,0,0.1,0.1,0.1,0.2c0-0.1,0.1-0.2,0.1-0.2c0,0,0.1,0.1,0.1,0.2c0-0.1,0.1-0.2,0.1-0.2c0,0,0.1,0.1,0.1,0.2
				c0-0.1,0.1-0.2,0.1-0.2c0,0,0.1,0.1,0.1,0.2c0-0.1,0.1-0.2,0.1-0.2c0,0,0.1,0.1,0.1,0.2c0-0.1,0.1-0.2,0.1-0.2
				c0,0,0.1,0.1,0.1,0.2c0-0.1,0.1-0.2,0.1-0.2c0,0,0.1,0.1,0.1,0.2c0-0.1,0.1-0.2,0.1-0.2c0,0,0.1,0.1,0.1,0.2
				c0-0.1,0.1-0.2,0.1-0.2c0,0,0.1,0.1,0.1,0.2c0-0.1,0.1-0.2,0.1-0.2c0,0,0.1,0.1,0.1,0.2c0-0.1,0.1-0.2,0.1-0.2
				c0,0,0.1,0.1,0.1,0.2c0-0.1,0.1-0.2,0.1-0.2c0,0,0.1,0.1,0.1,0.2c0-0.1,0.1-0.2,0.1-0.2c0,0,0.1,0.1,0.1,0.2
				c0-0.1,0.1-0.2,0.1-0.2c0,0,0.1,0.1,0.1,0.2c0-0.1,0.1-0.2,0.1-0.2c0,0,0.1,0.1,0.1,0.2c0-0.1,0.1-0.2,0.1-0.2
				c0,0,0.1,0.1,0.1,0.2c0-0.1,0.1-0.2,0.1-0.2c0,0,0.1,0.1,0.1,0.2c0-0.1,0.1-0.2,0.1-0.2c0,0,0.1,0.1,0.1,0.2
				c0-0.1,0.1-0.2,0.1-0.2c0,0,0.1,0.1,0.1,0.2c0-0.1,0.1-0.2,0.1-0.2c0,0,0.1,0.1,0.1,0.2c0-0.1,0.1-0.2,0.1-0.2
				c0,0,0.1,0.1,0.1,0.2c0-0.1,0.1-0.2,0.1-0.2c0,0,0.1,0.1,0.1,0.2c0-0.1,0.1-0.2,0.1-0.2c0,0,0.1,0.1,0.1,0.2
				c0-0.1,0.1-0.2,0.1-0.2c0,0,0.1,0.1,0.1,0.2c0-0.1,0.1-0.2,0.1-0.2c0,0,0.1,0.1,0.1,0.2c0-0.1,0.1-0.2,0.1-0.2
				c0,0,0.1,0.1,0.1,0.2c0-0.1,0.1-0.2,0.1-0.2c0,0,0.1,0.1,0.1,0.2c0-0.1,0.1-0.2,0.1-0.2c0,0,0.1,0.1,0.1,0.2
				c0-0.1,0.1-0.2,0.1-0.2c0,0,0.1,0.1,0.1,0.2c0-0.1,0.1-0.2,0.1-0.2c0,0,0.1,0.1,0.1,0.2c0-0.1,0.1-0.2,0.1-0.2
				c0,0,0.1,0.1,0.1,0.2c0-0.1,0.1-0.2,0.1-0.2c0,0,0.1,0.1,0.1,0.2c0-0.1,0.1-0.2,0.1-0.2c0,0,0.1,0.1,0.1,0.2
				c0-0.1,0.1-0.2,0.1-0.2c0,0,0.1,0.1,0.1,0.2c0-0.1,0.1-0.2,0.1-0.2c0,0,0.1,0.1,0.1,0.2c0-0.1,0.1-0.2,0.1-0.2
				c0,0,0.1,0.1,0.1,0.2c0-0.1,0.1-0.2,0.1-0.2c0,0,0.1,0.1,0.1,0.2c0-0.1,0.1-0.2,0.1-0.2c0,0,0.1,0.1,0.1,0.2
				c0-0.1,0.1-0.2,0.1-0.2c0,0,0.1,0.1,0.1,0.2c0-0.1,0.1-0.2,0.1-0.2c0,0,0.1,0.1,0.1,0.2c0-0.1,0.1-0.2,0.1-0.2
				c0,0,0.1,0.1,0.1,0.2c0-0.1,0.1-0.2,0.1-0.2c0,0,0.1,0.1,0.1,0.2c0-0.1,0.1-0.2,0.1-0.2c0,0,0.1,0.1,0.1,0.2
				c0-0.1,0.1-0.2,0.1-0.2c0,0,0.1,0.1,0.1,0.2c0-0.1,0.1-0.2,0.1-0.2c0,0,0.1,0.1,0.1,0.2c0-0.1,0.1-0.2,0.1-0.2
				c0,0,0.1,0.1,0.1,0.2c0-0.1,0.1-0.2,0.1-0.2c0,0,0.1,0.1,0.1,0.2c0-0.1,0.1-0.2,0.1-0.2c0,0,0.1,0.1,0.1,0.2
				c0-0.1,0.1-0.2,0.1-0.2c0,0,0.1,0.1,0.1,0.2c0-0.1,0.1-0.2,0.1-0.2c0,0,0.1,0.1,0.1,0.2c0-0.1,0.1-0.2,0.1-0.2
				c0,0,0.1,0.1,0.1,0.2c0-0.1,0.1-0.2,0.1-0.2c0,0,0.1,0.1,0.1,0.2c0-0.1,0.1-0.2,0.1-0.2c0,0,0.1,0.1,0.1,0.2
				c0-0.1,0.1-0.2,0.1-0.2c0,0,0.1,0.1,0.1,0.2c0-0.1,0.1-0.2,0.1-0.2c0,0,0.1,0.1,0.1,0.2c0-0.1,0.1-0.2,0.1-0.2
				c0,0,0.1,0.1,0.1,0.2c0-0.1,0.1-0.2,0.1-0.2c0,0,0.1,0.1,0.1,0.2c0-0.1,0.1-0.2,0.1-0.2c0,0,0.1,0.1,0.1,0.2
				c0-0.1,0.1-0.2,0.1-0.2c0,0,0.1,0.1,0.1,0.2c0-0.1,0.1-0.2,0.1-0.2c0,0,0.1,0.1,0.1,0.2c0-0.1,0.1-0.2,0.1-0.2
				c0,0,0.1,0.1,0.1,0.2c0-0.1,0.1-0.2,0.1-0.2c0,0,0.1,0.1,0.1,0.2c0-0.1,0.1-0.2,0.1-0.2c0,0,0.1,0.1,0.1,0.2
				c0-0.1,0.1-0.2,0.1-0.2c0,0,0.1,0.1,0.1,0.2c0-0.1,0.1-0.2,0.1-0.2c0,0,0.1,0.1,0.1,0.2c0-0.1,0.1-0.2,0.1-0.2
				c0,0,0.1,0.1,0.1,0.2c0-0.1,0.1-0.2,0.1-0.2c0,0,0.1,0.1,0.1,0.2c0-0.1,0.1-0.2,0.1-0.2c0,0,0.1,0.1,0.1,0.2
				c0-0.1,0.1-0.2,0.1-0.2c0,0,0.1,0.1,0.1,0.2c0-0.1,0.1-0.2,0.1-0.2c0,0,0.1,0.1,0.1,0.2c0-0.1,0.1-0.2,0.1-0.2
				c0,0,0.1,0.1,0.1,0.2c0-0.1,0.1-0.2,0.1-0.2c0,0,0.1,0.1,0.1,0.2c0-0.1,0.1-0.2,0.1-0.2c0,0,0.1,0.1,0.1,0.2
				c0-0.1,0.1-0.2,0.1-0.2c0,0,0.1,0.1,0.1,0.2c0-0.1,0.1-0.2,0.1-0.2c0,0,0.1,0.1,0.1,0.2c0-0.1,0.1-0.2,0.1-0.2
				c0,0,0.1,0.1,0.1,0.2c0-0.1,0.1-0.2,0.1-0.2c0,0,0.1,0.1,0.1,0.2c0-0.1,0.1-0.2,0.1-0.2c0,0,0.1,0.1,0.1,0.2
				c0-0.1,0.1-0.2,0.1-0.2c0,0,0.1,0.1,0.1,0.2c0-0.1,0.1-0.2,0.1-0.2c0,0,0.1,0.1,0.1,0.2c0-0.1,0.1-0.2,0.1-0.2
				c0,0,0.1,0.1,0.1,0.2c0-0.1,0.1-0.2,0.1-0.2c0,0,0.1,0.1,0.1,0.2c0-0.1,0.1-0.2,0.1-0.2c0,0,0.1,0.1,0.1,0.2
				c0-0.1,0.1-0.2,0.1-0.2c0,0,0.1,0.1,0.1,0.2c0-0.1,0.1-0.2,0.1-0.2c0,0,0.1,0.1,0.1,0.2c0-0.1,0.1-0.2,0.1-0.2
				c0,0,0.1,0.1,0.1,0.2c0-0.1,0.1-0.2,0.1-0.2c0,0,0.1,0.1,0.1,0.2c0-0.1,0.1-0.2,0.1-0.2c0,0,0.1,0.1,0.1,0.2
				c0-0.1,0.1-0.2,0.1-0.2c0,0,0.1,0.1,0.1,0.2c0-0.1,0.1-0.2,0.1-0.2c0.2,0,0.3,1.4,0.3,3.1c0,1.7-0.2,3.1-0.3,3.1
				c0,0-0.1-0.1-0.1-0.2c0,0.1-0.1,0.2-0.1,0.2c0,0-0.1-0.1-0.1-0.2c0,0.1-0.1,0.2-0.1,0.2c0,0-0.1-0.1-0.1-0.2
				c0,0.1-0.1,0.2-0.1,0.2c0,0-0.1-0.1-0.1-0.2c0,0.1-0.1,0.2-0.1,0.2c0,0-0.1-0.1-0.1-0.2c0,0.1-0.1,0.2-0.1,0.2
				c0,0-0.1-0.1-0.1-0.2c0,0.1-0.1,0.2-0.1,0.2c0,0-0.1-0.1-0.1-0.2c0,0.1-0.1,0.2-0.1,0.2c0,0-0.1-0.1-0.1-0.2
				c0,0.1-0.1,0.2-0.1,0.2c0,0-0.1-0.1-0.1-0.2c0,0.1-0.1,0.2-0.1,0.2c0,0-0.1-0.1-0.1-0.2c0,0.1-0.1,0.2-0.1,0.2
				c0,0-0.1-0.1-0.1-0.2c0,0.1-0.1,0.2-0.1,0.2c0,0-0.1-0.1-0.1-0.2c0,0.1-0.1,0.2-0.1,0.2c0,0-0.1-0.1-0.1-0.2
				c0,0.1-0.1,0.2-0.1,0.2c0,0-0.1-0.1-0.1-0.2c0,0.1-0.1,0.2-0.1,0.2c0,0-0.1-0.1-0.1-0.2c0,0.1-0.1,0.2-0.1,0.2
				c0,0-0.1-0.1-0.1-0.2c0,0.1-0.1,0.2-0.1,0.2c0,0-0.1-0.1-0.1-0.2c0,0.1-0.1,0.2-0.1,0.2c0,0-0.1-0.1-0.1-0.2
				c0,0.1-0.1,0.2-0.1,0.2c0,0-0.1-0.1-0.1-0.2c0,0.1-0.1,0.2-0.1,0.2c0,0-0.1-0.1-0.1-0.2c0,0.1-0.1,0.2-0.1,0.2
				c0,0-0.1-0.1-0.1-0.2c0,0.1-0.1,0.2-0.1,0.2c0,0-0.1-0.1-0.1-0.2c0,0.1-0.1,0.2-0.1,0.2c0,0-0.1-0.1-0.1-0.2
				c0,0.1-0.1,0.2-0.1,0.2c0,0-0.1-0.1-0.1-0.2c0,0.1-0.1,0.2-0.1,0.2c0,0-0.1-0.1-0.1-0.2c0,0.1-0.1,0.2-0.1,0.2
				c0,0-0.1-0.1-0.1-0.2c0,0.1-0.1,0.2-0.1,0.2c0,0-0.1-0.1-0.1-0.2c0,0.1-0.1,0.2-0.1,0.2c0,0-0.1-0.1-0.1-0.2
				c0,0.1-0.1,0.2-0.1,0.2c0,0-0.1-0.1-0.1-0.2c0,0.1-0.1,0.2-0.1,0.2c0,0-0.1-0.1-0.1-0.2c0,0.1-0.1,0.2-0.1,0.2
				c0,0-0.1-0.1-0.1-0.2c0,0.1-0.1,0.2-0.1,0.2c0,0-0.1-0.1-0.1-0.2c0,0.1-0.1,0.2-0.1,0.2c0,0-0.1-0.1-0.1-0.2
				c0,0.1-0.1,0.2-0.1,0.2c0,0-0.1-0.1-0.1-0.2c0,0.1-0.1,0.2-0.1,0.2c0,0-0.1-0.1-0.1-0.2c0,0.1-0.1,0.2-0.1,0.2
				c0,0-0.1-0.1-0.1-0.2c0,0.1-0.1,0.2-0.1,0.2c0,0-0.1-0.1-0.1-0.2c0,0.1-0.1,0.2-0.1,0.2c0,0-0.1-0.1-0.1-0.2
				c0,0.1-0.1,0.2-0.1,0.2c0,0-0.1-0.1-0.1-0.2c0,0.1-0.1,0.2-0.1,0.2c0,0-0.1-0.1-0.1-0.2c0,0.1-0.1,0.2-0.1,0.2
				c0,0-0.1-0.1-0.1-0.2c0,0.1-0.1,0.2-0.1,0.2c0,0-0.1-0.1-0.1-0.2c0,0.1-0.1,0.2-0.1,0.2c0,0-0.1-0.1-0.1-0.2
				c0,0.1-0.1,0.2-0.1,0.2c0,0-0.1-0.1-0.1-0.2c0,0.1-0.1,0.2-0.1,0.2c0,0-0.1-0.1-0.1-0.2c0,0.1-0.1,0.2-0.1,0.2
				c0,0-0.1-0.1-0.1-0.2c0,0.1-0.1,0.2-0.1,0.2c0,0-0.1-0.1-0.1-0.2c0,0.1-0.1,0.2-0.1,0.2c0,0-0.1-0.1-0.1-0.2
				c0,0.1-0.1,0.2-0.1,0.2c0,0-0.1-0.1-0.1-0.2c0,0.1-0.1,0.2-0.1,0.2c0,0-0.1-0.1-0.1-0.2c0,0.1-0.1,0.2-0.1,0.2
				c0,0-0.1-0.1-0.1-0.2c0,0.1-0.1,0.2-0.1,0.2c0,0-0.1-0.1-0.1-0.2c0,0.1-0.1,0.2-0.1,0.2c0,0-0.1-0.1-0.1-0.2
				c0,0.1-0.1,0.2-0.1,0.2c0,0-0.1-0.1-0.1-0.2c0,0.1-0.1,0.2-0.1,0.2c0,0-0.1-0.1-0.1-0.2c0,0.1-0.1,0.2-0.1,0.2
				c0,0-0.1-0.1-0.1-0.2c0,0.1-0.1,0.2-0.1,0.2c0,0-0.1-0.1-0.1-0.2c0,0.1-0.1,0.2-0.1,0.2c0,0-0.1-0.1-0.1-0.2
				c0,0.1-0.1,0.2-0.1,0.2c0,0-0.1-0.1-0.1-0.2c0,0.1-0.1,0.2-0.1,0.2c0,0-0.1-0.1-0.1-0.2c0,0.1-0.1,0.2-0.1,0.2
				c0,0-0.1-0.1-0.1-0.2c0,0.1-0.1,0.2-0.1,0.2c0,0-0.1-0.1-0.1-0.2c0,0.1-0.1,0.2-0.1,0.2c0,0-0.1-0.1-0.1-0.2
				c0,0.1-0.1,0.2-0.1,0.2c0,0-0.1-0.1-0.1-0.2c0,0.1-0.1,0.2-0.1,0.2c0,0-0.1-0.1-0.1-0.2c0,0.1-0.1,0.2-0.1,0.2
				c0,0-0.1-0.1-0.1-0.2c0,0.1-0.1,0.2-0.1,0.2c0,0-0.1-0.1-0.1-0.2c0,0.1-0.1,0.2-0.1,0.2c0,0-0.1-0.1-0.1-0.2
				c0,0.1-0.1,0.2-0.1,0.2c0,0-0.1-0.1-0.1-0.2c0,0.1-0.1,0.2-0.1,0.2c0,0-0.1-0.1-0.1-0.2c0,0.1-0.1,0.2-0.1,0.2
				c0,0-0.1-0.1-0.1-0.2c0,0.1-0.1,0.2-0.1,0.2c0,0-0.1-0.1-0.1-0.2c0,0.1-0.1,0.2-0.1,0.2c0,0-0.1-0.1-0.1-0.2
				c0,0.1-0.1,0.2-0.1,0.2c0,0-0.1-0.1-0.1-0.2c0,0.1-0.1,0.2-0.1,0.2c0,0-0.1-0.1-0.1-0.2c0,0.1-0.1,0.2-0.1,0.2
				c0,0-0.1-0.1-0.1-0.2c0,0.1-0.1,0.2-0.1,0.2c0,0-0.1-0.1-0.1-0.2c0,0.1-0.1,0.2-0.1,0.2c0,0-0.1-0.1-0.1-0.2
				c0,0.1-0.1,0.2-0.1,0.2c0,0-0.1-0.1-0.1-0.2c0,0.1-0.1,0.2-0.1,0.2c0,0-0.1-0.1-0.1-0.2c0,0.1-0.1,0.2-0.1,0.2
				c0,0-0.1-0.1-0.1-0.2c0,0.1-0.1,0.2-0.1,0.2c0,0-0.1-0.1-0.1-0.2c0,0.1-0.1,0.2-0.1,0.2c0,0-0.1-0.1-0.1-0.2
				c0,0.1-0.1,0.2-0.1,0.2c0,0-0.1-0.1-0.1-0.2c0,0.1-0.1,0.2-0.1,0.2c0,0-0.1-0.1-0.1-0.2c0,0.1-0.1,0.2-0.1,0.2
				c0,0-0.1-0.1-0.1-0.2c0,0.1-0.1,0.2-0.1,0.2c0,0-0.1-0.1-0.1-0.2c0,0.1-0.1,0.2-0.1,0.2c0,0-0.1-0.1-0.1-0.2
				c0,0.1-0.1,0.2-0.1,0.2c0,0-0.1-0.1-0.1-0.2c0,0.1-0.1,0.2-0.1,0.2c0,0-0.1-0.1-0.1-0.2c0,0.1-0.1,0.2-0.1,0.2
				c0,0-0.1-0.1-0.1-0.2c0,0.1-0.1,0.2-0.1,0.2c0,0-0.1-0.1-0.1-0.2c0,0.1-0.1,0.2-0.1,0.2c0,0-0.1-0.1-0.1-0.2
				c0,0.1-0.1,0.2-0.1,0.2c0,0-0.1-0.1-0.1-0.2c0,0.1-0.1,0.2-0.1,0.2c0,0-0.1-0.1-0.1-0.2c0,0.1-0.1,0.2-0.1,0.2
				c0,0-0.1-0.1-0.1-0.2c0,0.1-0.1,0.2-0.1,0.2c0,0-0.1-0.1-0.1-0.2c0,0.1-0.1,0.2-0.1,0.2c0,0-0.1-0.1-0.1-0.2
				c0,0.1-0.1,0.2-0.1,0.2c0,0-0.1-0.1-0.1-0.2c0,0.1-0.1,0.2-0.1,0.2c0,0-0.1-0.1-0.1-0.2c0,0.1-0.1,0.2-0.1,0.2
				c0,0-0.1-0.1-0.1-0.2c0,0.1-0.1,0.2-0.1,0.2c-0.2,0-0.3-1.4-0.3-3.1C61.6,40.4,61.8,39,62,39z"/>
			<g>
				<path class="st3" d="M83.3,45.3h0.1c0.1,0,0.2-0.1,0.2-0.2v-3.8c0-0.1-0.1-0.2-0.2-0.2h-0.1c-0.1,0-0.2,0.1-0.2,0.2v3.8
					C83.1,45.2,83.2,45.3,83.3,45.3z"/>
				<path class="st3" d="M82.6,45.3L82.6,45.3c0.1,0,0.2-0.1,0.2-0.2v-3.7c0-0.1-0.1-0.2-0.2-0.2l0,0c-0.1,0-0.2,0.1-0.2,0.2V45
					C82.4,45.2,82.5,45.3,82.6,45.3z"/>
				<path class="st3" d="M81.9,45.3L81.9,45.3c0.1,0,0.2-0.1,0.2-0.2v-3.7c0-0.1-0.1-0.2-0.2-0.2l0,0c-0.1,0-0.2,0.1-0.2,0.2V45
					C81.7,45.2,81.8,45.3,81.9,45.3z"/>
				<path class="st3" d="M81.3,45.3L81.3,45.3c0.1,0,0.2-0.1,0.2-0.2v-3.7c0-0.1-0.1-0.2-0.2-0.2l0,0c-0.1,0-0.2,0.1-0.2,0.2V45
					C81,45.2,81.1,45.3,81.3,45.3z"/>
				<path class="st3" d="M80.6,45.3L80.6,45.3c0.1,0,0.2-0.1,0.2-0.2v-3.7c0-0.1-0.1-0.2-0.2-0.2l0,0c-0.1,0-0.2,0.1-0.2,0.2V45
					C80.3,45.2,80.4,45.3,80.6,45.3z"/>
				<path class="st3" d="M79.9,45.3L79.9,45.3c0.1,0,0.2-0.1,0.2-0.2v-3.7c0-0.1-0.1-0.2-0.2-0.2l0,0c-0.1,0-0.2,0.1-0.2,0.2v3.7
					C79.6,45.2,79.8,45.3,79.9,45.3z"/>
				<path class="st3" d="M79.2,45.3L79.2,45.3c0.1,0,0.2-0.1,0.2-0.2v-3.7c0-0.1-0.1-0.2-0.2-0.2l0,0c-0.1,0-0.2,0.1-0.2,0.2v3.7
					C79,45.2,79.1,45.3,79.2,45.3z"/>
				<path class="st3" d="M78.5,45.3L78.5,45.3c0.1,0,0.2-0.1,0.2-0.2v-3.7c0-0.1-0.1-0.2-0.2-0.2l0,0c-0.1,0-0.2,0.1-0.2,0.2v3.7
					C78.3,45.2,78.4,45.3,78.5,45.3z"/>
				<path class="st3" d="M77.8,45.3L77.8,45.3c0.1,0,0.2-0.1,0.2-0.2v-3.7c0-0.1-0.1-0.2-0.2-0.2l0,0c-0.1,0-0.2,0.1-0.2,0.2v3.7
					C77.6,45.2,77.7,45.3,77.8,45.3z"/>
				<path class="st3" d="M77.1,45.3L77.1,45.3c0.1,0,0.2-0.1,0.2-0.2v-3.7c0-0.1-0.1-0.2-0.2-0.2l0,0c-0.1,0-0.2,0.1-0.2,0.2v3.7
					C76.9,45.2,77,45.3,77.1,45.3z"/>
				<path class="st3" d="M76.4,45.3L76.4,45.3c0.1,0,0.2-0.1,0.2-0.2v-3.7c0-0.1-0.1-0.2-0.2-0.2l0,0c-0.1,0-0.2,0.1-0.2,0.2v3.7
					C76.2,45.2,76.3,45.3,76.4,45.3z"/>
				<path class="st3" d="M75.8,45.3L75.8,45.3c0.1,0,0.2-0.1,0.2-0.2v-3.7c0-0.1-0.1-0.2-0.2-0.2l0,0c-0.1,0-0.2,0.1-0.2,0.2v3.7
					C75.5,45.2,75.6,45.3,75.8,45.3z"/>
				<path class="st3" d="M75.1,45.4L75.1,45.4c0.1,0,0.2-0.1,0.2-0.2v-3.7c0-0.1-0.1-0.2-0.2-0.2l0,0c-0.1,0-0.2,0.1-0.2,0.2v3.7
					C74.8,45.2,74.9,45.4,75.1,45.4z"/>
				<path class="st3" d="M74.4,45.4L74.4,45.4c0.1,0,0.2-0.1,0.2-0.2v-3.7c0-0.1-0.1-0.2-0.2-0.2l0,0c-0.1,0-0.2,0.1-0.2,0.2v3.7
					C74.1,45.3,74.2,45.4,74.4,45.4z"/>
				<path class="st3" d="M73.7,45.4L73.7,45.4c0.1,0,0.2-0.1,0.2-0.2v-3.7c0-0.1-0.1-0.2-0.2-0.2l0,0c-0.1,0-0.2,0.1-0.2,0.2v3.7
					C73.5,45.3,73.6,45.4,73.7,45.4z"/>
				<path class="st3" d="M73,45.4L73,45.4c0.1,0,0.2-0.1,0.2-0.2v-3.7c0-0.1-0.1-0.2-0.2-0.2l0,0c-0.1,0-0.2,0.1-0.2,0.2v3.7
					C72.8,45.3,72.9,45.4,73,45.4z"/>
				<path class="st3" d="M72.3,45.4L72.3,45.4c0.1,0,0.2-0.1,0.2-0.2v-3.7c0-0.1-0.1-0.2-0.2-0.2l0,0c-0.1,0-0.2,0.1-0.2,0.2v3.7
					C72.1,45.3,72.2,45.4,72.3,45.4z"/>
				<path class="st3" d="M71.6,45.4L71.6,45.4c0.1,0,0.2-0.1,0.2-0.2v-3.7c0-0.1-0.1-0.2-0.2-0.2l0,0c-0.1,0-0.2,0.1-0.2,0.2v3.7
					C71.4,45.3,71.5,45.4,71.6,45.4z"/>
				<path class="st3" d="M70.9,45.4L70.9,45.4c0.1,0,0.2-0.1,0.2-0.2v-3.7c0-0.1-0.1-0.2-0.2-0.2l0,0c-0.1,0-0.2,0.1-0.2,0.2v3.7
					C70.7,45.3,70.8,45.4,70.9,45.4z"/>
				<path class="st3" d="M70.3,45.4L70.3,45.4c0.1,0,0.2-0.1,0.2-0.2v-3.7c0-0.1-0.1-0.2-0.2-0.2l0,0c-0.1,0-0.2,0.1-0.2,0.2v3.7
					C70,45.3,70.1,45.4,70.3,45.4z"/>
				<path class="st3" d="M69.6,45.4L69.6,45.4c0.1,0,0.2-0.1,0.2-0.2v-3.7c0-0.1-0.1-0.2-0.2-0.2l0,0c-0.1,0-0.2,0.1-0.2,0.2v3.7
					C69.3,45.3,69.4,45.4,69.6,45.4z"/>
				<path class="st3" d="M68.9,45.4L68.9,45.4c0.1,0,0.2-0.1,0.2-0.2v-3.7c0-0.1-0.1-0.2-0.2-0.2l0,0c-0.1,0-0.2,0.1-0.2,0.2v3.7
					C68.6,45.3,68.7,45.4,68.9,45.4z"/>
				<path class="st3" d="M68.2,45.4L68.2,45.4c0.1,0,0.2-0.1,0.2-0.2v-3.7c0-0.1-0.1-0.2-0.2-0.2l0,0c-0.1,0-0.2,0.1-0.2,0.2v3.7
					C68,45.3,68.1,45.4,68.2,45.4z"/>
				<path class="st3" d="M67.5,45.5L67.5,45.5c0.1,0,0.2-0.1,0.2-0.2v-3.7c0-0.1-0.1-0.2-0.2-0.2l0,0c-0.1,0-0.2,0.1-0.2,0.2v3.7
					C67.3,45.3,67.4,45.5,67.5,45.5z"/>
				<path class="st3" d="M66.8,45.5L66.8,45.5c0.1,0,0.2-0.1,0.2-0.2v-3.7c0-0.1-0.1-0.2-0.2-0.2l0,0c-0.1,0-0.2,0.1-0.2,0.2v3.7
					C66.6,45.4,66.7,45.5,66.8,45.5z"/>
				<path class="st3" d="M66.1,45.5L66.1,45.5c0.1,0,0.2-0.1,0.2-0.2v-3.7c0-0.1-0.1-0.2-0.2-0.2l0,0c-0.1,0-0.2,0.1-0.2,0.2v3.7
					C65.9,45.4,66,45.5,66.1,45.5z"/>
				<path class="st3" d="M65.4,45.5h0.1c0.1,0,0.2-0.1,0.2-0.2v-3.8c0-0.1-0.1-0.2-0.2-0.2h-0.1c-0.1,0-0.2,0.1-0.2,0.2v3.8
					C65.2,45.4,65.3,45.5,65.4,45.5z"/>
			</g>
		</g>
	</g>
</g>
<g id="Map_template">
</g>
<g id="Text">
</g>
<g id="BullesCompareesPlus">
</g>
<g id="Layer_1">
</g>
<g id="_x3C_Layer_x3E_">
</g>
</svg>
